<?xml version="1.0" encoding="iso-8859-1"?>
<!-- Generator: Adobe Illustrator 23.0.5, SVG Export Plug-In . SVG Version: 6.00 Build 0)  -->
<svg version="1.1" id="Layer_4" xmlns="http://www.w3.org/2000/svg" xmlns:xlink="http://www.w3.org/1999/xlink" x="0px" y="0px"
	 width="720px" height="720px" viewBox="0 0 720 720" enable-background="new 0 0 720 720" xml:space="preserve">
<g>
	<g>
		<defs>
			<path id="SVGID_1_" d="M572.039,293.43c-27.001-1.278-53.149-6.683-77.367-18.69c-1.992,8.089-4.004,16.234-7.487,23.801
				c-3.483,7.567-8.57,14.607-15.583,19.102s-14.871,5.963-22.61,2.879c3.279,3.544,6.341,7.452,7.847,12.04
				c1.505,4.588,1.225,9.99-1.736,13.805c-2.966,3.822-7.925,5.386-12.569,6.742c-9.863,2.88-20.391,6.706-30.255,9.587
				c9.372,3.976,16.43,12.98,18.051,23.031c1.622,10.051-2.246,20.817-9.893,27.539c-4.418,3.883-11.183,6.149-14.053,11.283
				c-4.84,8.66-14.169,14.48-24.019,15.66c-5.967,0.715-12.347-0.27-17.167-3.858c-4.256-3.168-6.897-7.998-9.407-12.673
				c-3.179-5.921-6.415-12.018-7.227-18.689c-0.843-6.925,0.686-14.193,4.911-19.744c-9.274,0.815-18.884-3.067-25.295-9.817
				c-17.838,16.745-42.428,29.064-66.77,26.606c-17.963,9.74-39.185,9.859-57.935,1.739c-3.915,5.553-0.991,13.072-0.11,19.809
				c2.112,16.154-8.441,30.878-17.702,44.282c-19.609,28.38-34.287,61.974-46.453,94.253c5.159,6.278,7.842,14.536,7.357,22.647
				c-0.53,8.873-2.935,15.655-9.537,21.607c1.04,12.592,5.072,24.6,8.676,36.71c3.604,12.11,5.906,25.297,1.771,37.237
				c-0.93,2.686-2.239,5.347-4.424,7.165c-2.185,1.818-5.408,2.61-7.944,1.324c-2.501,3.867-7.93,7.95-12.456,8.801
				c-4.526,0.851-9.383-0.233-13.118-2.928c-3.217,1.539-10.106,2.992-13.259,1.326c-3.153-1.666-5.439-4.879-5.98-8.404
				c-2.737,0.249-6.45-1.866-7.752-4.287c-1.302-2.421-1.611-5.234-1.896-7.968c-2.22-21.276,1.953-48.537-8.134-67.4
				c-8.165-15.267-6.857-34.087-1.222-50.458s15.183-31.049,23.408-46.283c16.585-30.72,29.635-70.046,35.693-98.553
				c0.975-4.59,0.298-8.784,4.451-10.97c2.316-11.024-4.395-21.629-9.296-31.772c-10.77-22.291-13.512-48.359-7.614-72.402
				c11.697-47.686,58.112-77.582,94.952-110.04c16.832-14.83,35.361-28.849,57.102-34.381c19.35-4.924,41.453-1.224,59.244,7.838
				c2.468,5.845,9.499,8.552,15.839,8.3c6.34-0.252,12.332-2.771,18.433-4.515c11.758-3.361,22.843-3.928,34.832-1.515
				c18.078-3.943,37.645-0.562,53.351,9.219c23.689,14.752,36.358,42.28,48.039,67.625c24.315,15.915,53.887,21.73,82.639,25.958
				c28.752,4.228,58.152,7.338,84.84,18.838c12.38,5.335,24.557,12.998,30.838,24.927c0.63,1.197,1.208,2.572,0.812,3.865
				c-0.964,3.148-5.637,2.221-8.565,0.716C652.187,294.766,614.832,295.456,572.039,293.43z"/>
		</defs>
		<clipPath id="SVGID_2_">
			<use xlink:href="#SVGID_1_"  overflow="visible"/>
		</clipPath>
		<path clip-path="url(#SVGID_2_)" fill="#C6824F" d="M151.893,623.724c-5.198-5.739-10.655-11.445-17.445-15.168
			c-6.789-3.723-15.204-5.23-22.336-2.213c-9.106,3.852-13.93,13.857-16.43,23.424c-5.176,19.81-3.648,41.308,4.276,60.188
			c3.41,8.125,8.479,16.236,16.546,19.782c7.895,3.47,17.4,1.772,24.685-2.844c7.285-4.616,12.605-11.799,16.68-19.401
			c6.562-12.241,10.317-26.223,9.131-40.061s-7.634-27.452-18.614-35.958"/>
		<path clip-path="url(#SVGID_2_)" fill="#A87042" d="M110.276,670.489c-0.213,3.737-0.412,7.59,0.831,11.121
			c1.243,3.531,4.305,6.697,8.044,6.87c3.817,0.176,7.214-2.833,8.662-6.369c1.448-3.536,1.347-7.494,1.09-11.307
			c8.819,9.235,9.582,24.704,2.629,35.414c-6.953,10.711-20.538,16.303-33.215,14.774c-12.677-1.528-24.122-9.625-30.894-20.451
			s-9.084-24.11-7.685-36.803c1.485-13.47,7.228-26.691,17.17-35.9c5.532-5.124,29.383-21.523,35.187-10.889
			c2.781,5.095,0.084,20.212-0.246,25.976C111.326,652.114,110.801,661.302,110.276,670.489z"/>
		<path clip-path="url(#SVGID_2_)" fill="#8A4F2D" d="M113.382,704.099c-4.021-10.448-6.731-21.4-8.045-32.518
			c-1.367,1.491-1.502,3.795-1.58,5.817c-0.078,2.022,0.105,4.074-0.336,6.048c-0.441,1.974-1.685,3.936-3.627,4.504
			c-2.045,0.598-4.212-0.499-5.825-1.891c-4.209-3.632-6.256-9.6-5.163-15.051c-1.718,2.105-0.781,5.999-2.945,7.642
			c-1.984,1.506-4.974-0.218-6.009-2.484c-1.035-2.266-0.923-4.884-1.628-7.273c0.267,6.087,0.538,12.208,1.823,18.164
			s3.647,11.795,7.658,16.381c4.011,4.586,9.812,7.805,15.904,7.858c2.444,0.021,5-0.511,6.866-2.09
			C112.342,707.626,114.26,706.38,113.382,704.099z"/>
		<path clip-path="url(#SVGID_2_)" fill="#8A4F2D" d="M149.432,643.98c0.107,4.369,0.941,8.687,1.257,13.045
			c0.315,4.358,0.074,8.896-1.836,12.826s-5.782,7.132-10.15,7.225c-4.369,0.094-8.746-3.686-8.41-8.043
			c0.571,7.332,1.68,13.96,5.496,20.248c1.394,2.296,3.237,4.644,5.872,5.162c4.098,0.806,7.524-3.127,9.394-6.862
			C157.954,673.798,157.868,656.881,149.432,643.98z"/>
		<path clip-path="url(#SVGID_2_)" fill="#935032" d="M615.966,242.575c-1.002-0.2-2.004-0.401-3.005-0.601
			c-28.893-5.779-63.262-17.976-89.036-32.256c-7.345-4.069-15.885-8.577-23.69-5.483c-7.604,3.015-10.875,11.968-11.986,20.072
			c-2.5,18.241,1.677,37.323,11.57,52.851c9.893,15.528,25.423,27.377,43.012,32.818c14.137,4.373,29.804,4.582,43.52-0.971
			s133.525,34.069,137.369,19.778c3.844-14.29-109.066-82.159-120.651-91.367"/>
		<path clip-path="url(#SVGID_2_)" fill="#E59B6A" d="M506.634,292.229c6.138,15.683,3.913,34.37-5.734,48.174
			c-9.647,13.804-26.431,22.316-43.268,21.942c16.943,36.874,2.473,85.264-31.931,106.784s-84.247,13.359-109.991-18.01
			c-2.523-3.074-4.968-6.443-8.55-8.17c-6.586-3.175-14.28,0.232-20.911,3.313c-35.607,16.545-75.175,24.487-114.409,22.965
			c-22.043-0.855-45.087-5.154-62.069-19.234c-19.869-16.474-27.934-43.717-28.011-69.527
			c-0.103-34.494,12.386-68.554,33.043-96.178c20.657-27.625,49.196-48.933,80.703-62.974c36.584-16.303,79.974-22.68,116.392-6.011
			c16.867,7.72,35.117,20.37,52.157,13.039c12.609-5.425,18.411-19.637,26.941-30.391c13.383-16.874,35.875-26.039,57.24-23.323
			c22.594,2.872,47.787,17.751,39.414,42.348c-4.31,12.66-7.714,23.747-2.829,37.055
			C489.906,267.883,501.251,278.473,506.634,292.229z"/>
		<path clip-path="url(#SVGID_2_)" fill="#494946" d="M418.798,384.539c0.707-1.014,0.796-2.333,0.706-3.566
			c-0.129-1.763-0.595-3.541-1.625-4.977c-0.213-0.297-0.453-0.577-0.714-0.835c-1.004-0.991-2.335-1.658-3.737-1.679
			c-4.857-0.073-8.065,6.092-5.297,9.966C410.341,386.54,416.244,388.2,418.798,384.539z"/>
		<path clip-path="url(#SVGID_2_)" fill="#242421" d="M422.821,368.917c-2.175-0.872-4.762-0.638-6.745,0.61
			c-0.504,0.317-1.001,0.743-1.127,1.325c-0.171,0.787,0.422,1.572,1.145,1.927s1.553,0.395,2.352,0.496
			c4.634,0.586,8.896,3.578,11.02,7.738c0.104-3.095-0.146-6.314-1.635-9.029s-4.477-4.794-7.55-4.417"/>
		<path clip-path="url(#SVGID_2_)" fill="#242421" d="M415.923,375.918c-2.146-0.865-4.818,0.574-5.532,2.776
			c-0.714,2.201,0.399,4.765,2.353,6.005c1.954,1.24,4.551,1.231,6.652,0.261c-4.323,1.995-6.094,5.951-11.838,3.383
			c-4.051-1.811-6.826-6.686-5.25-11.036c3.566-9.842,17.733-4.414,17.243,4.929C419.131,379.91,418.359,376.9,415.923,375.918z"/>
		<path clip-path="url(#SVGID_2_)" fill="#C6824F" d="M248.458,401.583c9.767,1.163,19.74,2.318,29.369,0.309
			c9.629-2.009,19.027-7.777,22.788-16.865c-7.056,0.206-13.451-5.126-16.139-11.653c-2.688-6.527-2.247-13.955-0.61-20.821
			c0.972-4.077,2.092-9.077-1.016-11.889c-4.826-4.366-15.019,0.881-18.222,5.166c-3.871,5.179-1.584,8.588-0.438,14.289
			C267.269,375.428,261.009,392.125,248.458,401.583z"/>
		<path clip-path="url(#SVGID_2_)" fill="#C6824F" d="M197.808,327.44c7.466,10.231,17.542,18.214,26.216,27.444
			c8.673,9.229,16.245,20.542,16.713,33.199c1.759-5.004,3.518-10.009,5.278-15.013c0.127,5.64,0.253,11.28,0.38,16.92
			c-3.384-9.398,0.961-19.937,7.176-27.757c6.215-7.82,14.278-14.067,20.138-22.156c7.477-10.321,10.934-23.117,11.883-35.826
			c0.961-12.869-0.605-26.199-6.547-37.655c-5.942-11.456-16.668-20.806-29.356-23.161c-14.334-2.66-29.24,3.89-39.611,14.135
			C190.768,276.645,180.556,303.799,197.808,327.44z"/>
		<path clip-path="url(#SVGID_2_)" fill="#C6824F" d="M160.807,282.651c-17.738,7.405-31.267,23.244-37.925,41.275
			c-6.658,18.031-6.846,38.04-2.766,56.823c2.801,12.896,7.586,25.889,5.522,38.923c-1.988,12.547-10.019,23.141-17.16,33.648
			c-26.169,38.504-43.55,85.59-35.695,131.478c3.05,17.817,5.678,51.965,23.298,47.932c10.976-2.512,26.131-28.469,49.935,12.865
			c10.6,18.407,31.506-27.691,39.955-47.179c18.89-43.572,32.353-89.552,39.116-136.559c1.559-10.835,2.753-21.956,0.439-32.655
			s-8.709-21.053-18.698-25.528c-9.99-4.475-23.55-1.305-28.552,8.432c3.828-7.456,1.237-16.914-4.087-23.387
			s-12.897-10.609-20.277-14.581c17.239,1.993,32.834,14.475,38.556,30.858c2.485-2.955,4.969-5.91,7.454-8.865
			c2.317,2.375,4.633,4.749,6.95,7.124c2.71-12.345-1.419-25.968-10.528-34.73c7.463-5.303,18.337-1.169,24.376,5.712
			c6.039,6.881,9.035,15.867,13.962,23.584c4.926,7.717,13.282,14.635,22.318,13.165c4.736-0.77,5.886-0.614,9.211-4.073
			c-3.984,0.716-8.287-0.689-11.08-3.62c4.35-0.05,8.699-0.099,13.049-0.149c-7.979,2.191-17.209-1.661-21.265-8.873
			c-4.055-7.212-2.55-17.1,3.467-22.779c-5.442-8.056-15.33-11.899-24.898-13.623s-19.455-1.818-28.765-4.619
			C172.063,345.832,154.899,307.71,160.807,282.651z"/>
		<path clip-path="url(#SVGID_2_)" fill="#C6824F" d="M350.401,247.881c15.373,5.463,26.681,20.842,27.311,37.144
			c-8.513-13.428-29.398-16.754-41.66-6.634c-3.568-18.244-2.897-37.303,1.944-55.251c1.972-7.309,5.15-15.065,11.84-18.61
			c6.588-3.491,15.603-1.39,19.97,4.653c3.304,4.572,3.883,10.487,5.432,15.911c2.666,9.34,8.337,17.472,13.381,25.773
			c5.043,8.301,9.649,17.361,9.771,27.073c0.048,3.834-2.732,19.179-8.73,18.666c-5.078-0.435-5.913-14.533-7.325-18.273
			C376.97,264.135,365.079,252.204,350.401,247.881z"/>
		<path clip-path="url(#SVGID_2_)" fill="#C6824F" d="M364.627,327.371c5.466-10.063,21.096-12.504,29.37-4.588
			c1.108-4.15-0.966-8.93-4.754-10.957s-8.915-1.098-11.753,2.127c0.101-7.117,8.68-12.004,15.509-9.999
			c6.829,2.004,11.294,8.955,12.387,15.988s-0.569,14.18-2.441,21.047s-3.986,13.81-3.813,20.925
			c1.602-5.515,8.165-8.573,13.801-7.469c5.636,1.104,10.179,5.508,12.874,10.579c2.695,5.071,3.826,10.803,4.923,16.44
			c0.195-7.325-8.865-13.108-15.427-9.847c-3.509-1.93-8.671-3.512-10.864-0.161c-1.666,2.545-0.001,5.98,2.131,8.15
			s4.855,4.033,5.771,6.934c2.4,7.602-9.219,14.151-7.309,21.891c1.26,5.107,8.134,6.967,12.972,4.903
			c4.838-2.064,8.029-6.66,10.956-11.03c2.946,2.928,2.816,8.348-0.268,11.13c-7.606,6.866-15.506,13.192-25.634,11.642
			c-10.128-1.551-19.028-9.357-21.885-19.197c-1.472,8.794,3.698,18.265,11.891,21.783c4.303,1.848,9.694,2.533,12.089,6.557
			c1.961,3.295,0.898,7.786-1.735,10.573c-2.633,2.788-6.488,4.113-10.287,4.627c-16.549,2.241-32.763-9.974-38.785-25.551
			c-6.022-15.577-3.417-33.383,3.069-48.773c4.763-11.302,11.694-23.345,7.951-35.025c-0.982-3.063-2.684-5.939-3.002-9.14
			C362.047,327.73,361.429,327.712,364.627,327.371z"/>
		<path clip-path="url(#SVGID_2_)" fill="#C6824F" d="M429.075,320.37c2.588-18.128,1.823-36.729-2.247-54.583
			c22.585,8.818,50.035,0.466,65.775-17.975s19.981-45.283,13.108-68.533c-6.874-23.25-23.967-42.777-44.863-55.073
			c-17.96-10.569-41.117-15.915-59.47-6.045c-16.235,8.731-24.728,26.981-30.473,44.497c-4.734,14.433-8.381,29.393-8.483,44.582
			c-0.102,15.189,3.553,30.71,12.345,43.095c8.615,12.135,21.935,21.128,27.341,34.994c2.356,6.043,3.018,12.616,5.061,18.772
			c2.043,6.156,5.992,12.27,12.17,14.243s14.292-2.447,13.943-8.924"/>
		<path clip-path="url(#SVGID_2_)" fill="#A87042" d="M93.304,490.514c1.13-14.501,10.975-26.582,19.672-38.241
			s17.022-25.516,14.449-39.832c-0.643-3.575-1.965-7.148-1.424-10.74c0.541-3.592,4.003-7.119,7.457-5.995
			c2.223,0.724,3.488,2.984,4.767,4.941c8.587,13.135,27.482,18.276,41.54,11.301c-14.004,6.365-24.697,19.576-28.003,34.599
			c3.004-10.78,13.003-18.171,23.269-22.626c10.266-4.455,21.412-6.859,31.23-12.231c7.941,5.198,9.065,17.604,6.505,26.744
			c-2.56,9.14-8.919,16.678-15.388,23.623s-13.351,13.798-17.388,22.388c-4.342,9.238-5.031,19.711-7.57,29.598
			s-7.844,20.116-17.368,23.791c9.955-20.332,13.939-43.543,11.334-66.03c-0.112,12.855-6.948,24.67-14.673,34.945
			c-7.725,10.275-16.638,19.867-22.07,31.518c3.307-5.641,8.398-10.219,14.359-12.908c-7.835,9.14-9.506,23.088-4.05,33.819
			c2.467,4.853,6.183,8.969,8.823,13.73c2.64,4.761,4.122,10.71,1.742,15.607c0.26-8.667-4.457-17.312-11.887-21.783
			c-0.282,13.089-1.386,27.943-11.578,36.161c-1.193-13.18-6.17-25.995-14.185-36.525c-7.34,7.137-6.848,18.972-4.799,29.003
			c2.049,10.031,7.366,32.286,3.475,41.755c-4.219,10.268-33.793,21.437-44.813,20.102s-5.426-25.742-11.272-35.18
			c-5.846-9.437-8.257-20.645-8.976-31.723C44.026,552.52,63.296,513.642,93.304,490.514z"/>
		<path clip-path="url(#SVGID_2_)" fill="#A87042" d="M177.648,333.699c7.938,9.463,19.427,15.874,31.648,17.662
			c-5.362-2.411-9.738-6.939-11.963-12.381c3.785,3.778,8.873,6.226,14.188,6.827c-3.676-4.622-7.353-9.245-11.029-13.867
			c6.809,6.644,16.58,10.132,26.057,9.3c3.77-0.331,7.509-1.307,11.285-1.059c3.776,0.248,7.799,2.1,9.137,5.64
			c-3.508-1.882-7.958-1.883-11.466-0.001c4.413-1.221,9.523,0.864,11.821,4.824c-6.428-1.886-13.363-2.01-19.854-0.357
			c8.913-0.137,17.6,5.821,20.681,14.185c3.082,8.364,0.337,18.535-6.535,24.213c0.138,2.527,1.418,5.163,1.556,7.69
			c-5.212-1.766-7.567-7.8-8.366-13.245c-0.799-5.445-0.811-11.312-3.885-15.876c-4.06-6.026-12.051-7.774-19.277-8.528
			c-7.227-0.754-15.064-1.23-20.603-5.934c2.228,5.188,7.007,9.206,12.5,10.51c-8.391,0.008-16.708-3.868-22.098-10.299
			C176.055,346.573,176.175,341.96,177.648,333.699z"/>
		<path clip-path="url(#SVGID_2_)" fill="#A87042" d="M231.065,294.555c5.354,4.579,13.16,6.097,19.84,3.857
			c6.68-2.239,11.993-8.156,13.505-15.036c3.378,13.081-2.812,28.037-14.447,34.905c-11.634,6.868-27.72,5.061-37.541-4.217
			c3.583,3.162,8.68,4.523,13.363,3.57c2.403,4.804-2.254,10.972-7.617,11.28s-10.204-3.792-12.419-8.686
			c-2.215-4.894-2.343-10.444-2.321-15.816c-4.548,10.027-11.597,20.962-22.569,21.871c-9.333,0.774-17.915-6.805-20.664-15.758
			c-2.749-8.953-0.723-18.741,2.938-27.361c12.329-29.032,44.368-48.394,75.803-45.812c6.813,0.56,14.881,2.553,19.36,8.159
			c5.412,6.775,2.499,15.651,1.025,23.373C256.674,282.763,245.257,292.567,231.065,294.555z"/>
		<path clip-path="url(#SVGID_2_)" fill="#A87042" d="M281.694,277.28c-7.102,18.853-6.785,40.39,0.869,59.025
			c1.721,4.19,3.869,8.333,7.232,11.368c3.362,3.035,8.15,4.8,12.517,3.596c-3.689,5.486-10.946,8.302-17.37,6.739
			c-1.849,5.91,2.048,12.587,7.675,15.173c5.627,2.586,12.36,1.695,17.976-0.916c5.616-2.611,10.342-6.769,14.982-10.87
			c15.607-13.794,31.214-27.588,46.821-41.382c-6.056,26.055-20.497,51.613-40.028,69.892s-44.568,30.596-70.967,34.915
			c-14.321-0.94-29.059-1.085-43.38-2.025c-3.586-0.235-7.542-0.638-9.986-3.273c-3.687-3.975-2.469-11.534-7.207-14.17
			c-4.459-2.481-9.476,1.729-13.541,4.813c-14.302,10.853-36.936,8.391-48.57-5.283c7.834,3.574,16.303,7.235,24.767,5.651
			c8.464-1.583,15.906-10.992,12.138-18.734c5.54,1.184,10.748,3.885,14.906,7.733c-3.848-10.201-12.231-18.593-22.427-22.452
			c16.479-0.767,33.076,7.861,41.914,21.79c4.407-5.171,12.318-4.815,18.709-2.509s13.24,5.514,19.67,3.32
			c-5.625,0.847-10.892-4.149-12.023-9.725s0.931-11.327,3.75-16.267c2.82-4.941,6.425-9.435,8.828-14.592
			c5.452-11.702,3.794-26.392-4.129-36.584c5.577-2.322,13.938,0.059,17.824,4.685s5.759,10.555,7.955,16.183
			s5.03,11.379,10.065,14.718c-9.201-0.543-18.558,3.604-24.334,10.787s-7.82,17.211-5.316,26.082
			c8.356-5.017,14.365-13.779,16.036-23.381c1.039,3.361,1.608,6.791,2.647,10.151c0.484-5.141,0.968-10.283,1.452-15.424
			c1.968,10.055,10.688,18.423,20.815,19.975c-11.813-5.456-17.238-21.555-11.137-33.048c-9.813-10.368-15.173-24.816-14.496-39.075
			C267.007,299.906,270.944,286.673,281.694,277.28z"/>
		<path clip-path="url(#SVGID_2_)" fill="#A87042" d="M371.225,288.629c-4.388,13.624-17.436,24.013-31.696,25.239
			c2.545-0.219,5.498-13.198,5.919-15.314c0.729-3.664-0.904-12.991,0.806-15.632c2.29-3.539,5.951-1.316,8.92,0.163
			C360.579,285.78,364.924,288.456,371.225,288.629z"/>
		<path clip-path="url(#SVGID_2_)" fill="#A87042" d="M370.418,268.964c3.832,4.341,6.757,9.992,6.01,15.734
			c0.635-4.883-8.163-12.077-11.607-14.258c-4.834-3.06-15.231-2.967-17.747-6.581c-3.12-4.482,0.048-13.832,6.333-11.521
			c2.588,0.952,5.642,5.955,7.738,7.904C364.257,263.136,367.595,265.766,370.418,268.964z"/>
		<path clip-path="url(#SVGID_2_)" fill="#A87042" d="M424.159,383.262c5.277,0.337,9.596,5.1,10.476,10.314
			c0.88,5.214-1.162,10.594-4.41,14.767c-3.572,4.589-3.681-6.799-3.325-8.833c0.49-2.795,0.465-5.634-0.023-8.432
			C426.705,390.084,425.33,383.336,424.159,383.262z"/>
		<path clip-path="url(#SVGID_2_)" fill="#A87042" d="M414.167,399.373c-1.082,2.05-2.896,4.053-2.457,6.33
			c0.176,0.915,0.714,1.731,0.876,2.648c0.31,1.755-0.96,3.582-2.666,4.096c-1.706,0.514-3.654-0.193-4.806-1.553
			s-1.545-3.268-1.251-5.026c0.654-3.916,4.234-6.623,5.958-10.199c2.203-4.572,0.362-7.979-1.177-12.21
			C414.212,385.511,416.752,394.475,414.167,399.373z"/>
		<path clip-path="url(#SVGID_2_)" fill="#A87042" d="M398.653,348.612c-0.518,2.753-0.766,5.56-0.666,8.36
			c0.015,0.412,0.042,0.842,0.249,1.199c0.207,0.357,0.651,0.611,1.038,0.468c0.355-0.132,0.528-0.525,0.66-0.881
			c1.248-3.384,2.32-7.064,2.643-10.671c0.124-1.385-0.362-2.587-1.99-1.857C399.3,345.806,398.891,347.349,398.653,348.612z"/>
		<path clip-path="url(#SVGID_2_)" fill="#A87042" d="M406.152,368.838c3.357-0.621,6.975,0.368,9.549,2.61
			c2.574,2.243,4.049,5.692,3.892,9.102c-1.2-3.204-3.551-6.147-6.794-7.238c-3.243-1.091-7.345,0.17-8.78,3.275
			c-4.196-2.904-6.442-8.38-5.494-13.395c0.948-5.015,5.039-9.292,10.006-10.463c3.648-0.86,7.671-0.016,10.73,2.131
			c2.142,1.504,7.225,7.335,5.789,10.392c-1.387,2.953-4.176,1.081-6.896,0.696C413.693,365.317,409.673,365.589,406.152,368.838z"
			/>
		<path clip-path="url(#SVGID_2_)" fill="#A87042" d="M360.921,335.255c3.929-5.448,7.858-10.895,11.786-16.343
			c6.552-2.798,16.011-1.231,19.523,4.968c-2.475-0.409-4.951-0.818-7.426-1.227c4.939,1.735,6.704,8.153,5.422,13.229
			c-1.282,5.076-4.692,9.292-7.33,13.814c-2.638,4.522-4.558,10.085-2.564,14.926c0.391-7.469,5.257-14.531,12.099-17.554
			c-3.559,11.452-0.361,24.739,8.02,33.317c3.152,3.226,7.231,6.34,7.549,10.839c0.281,3.98-2.599,7.48-5.697,9.995
			c-3.098,2.515-6.682,4.631-8.81,8.006c-2.129,3.375-2.06,8.625,1.399,10.613c-8.093-1.329-15.281-7.212-18.184-14.883
			c-0.997,6.826,1.011,14.036,5.392,19.364c-4.219-1.039-8.439-2.077-12.658-3.116c1.553,7.521,9.388,12.527,17.056,12.944
			s15.071-2.83,21.651-6.789c-4.036,10.53-14.921,17.855-26.189,18.297c-11.268,0.442-22.404-5.687-28.649-15.076
			c-6.245-9.39-7.659-21.657-4.394-32.451c2.921-9.658,9.361-18.436,9.602-28.523c0.163-6.793-2.548-13.323-3.234-20.083
			C354.598,342.761,354.527,337.554,360.921,335.255z"/>
		<path clip-path="url(#SVGID_2_)" fill="#A87042" d="M350.062,331.154c6.181,0.705,11.985-3.334,15.905-8.165
			s6.61-10.573,10.615-15.333c4.005-4.76,10-8.606,16.134-7.573c-2.208-4.43-7.905-5.677-12.478-3.786s-7.759,6.117-10.091,10.483
			c-2.332,4.366-4.059,9.079-6.914,13.122C359.553,325.116,356.21,329.44,350.062,331.154z"/>
		<path clip-path="url(#SVGID_2_)" fill="#A87042" d="M500.504,288.925c-8.83,8.887-21.774,13.507-34.235,12.22
			s-24.188-8.454-31.016-18.958c-1.124,2.599-1.474,4.459-2.598,7.058c6.878,5.131,14.699,8.994,22.955,11.335
			c-5.059,3.958-9.389,8.844-12.711,14.342c8.927,8.559,22.986,11.282,34.463,6.675C488.839,316.991,499.972,301.28,500.504,288.925
			z"/>
		<path clip-path="url(#SVGID_2_)" fill="#A87042" d="M425.268,291.986c-9.266-15.059-10.572-34.723-3.379-50.875
			c6.929,6.758,14.588,13.242,23.847,16.061c9.259,2.819,20.483,1.139,26.638-6.33c5.548-6.733,5.807-16.579,3.158-24.891
			c-3.936-12.352-13.878-22.634-26.09-26.984c-12.212-4.35-26.415-2.669-37.274,4.413c-1.479-6.664,2.006-13.644,7.1-18.187
			c5.095-4.543,11.593-7.128,17.946-9.625c-9.596-8.687-24.222-11.357-36.268-6.619c-12.046,4.738-20.935,16.656-22.042,29.552
			c3.057-10.875,12.528-19.682,23.597-21.94c-5.768,13.733-11.636,27.943-11.517,42.837c0.118,14.894,7.812,30.785,21.824,35.838
			c-5.407,10.673-0.281,22.89,5.196,33.527c5.477,10.637,12.554,21.053,13.395,32.988c-3.558-11.803-3.194-24.753,1.022-36.337
			c0.481,10.435,6.138,19.862,12.037,28.483c5.899,8.621,12.35,17.251,14.813,27.403s-0.259,22.439-9.27,27.724
			c-7.26-1.648-13.201-1.302-20.461-2.95c-10.334-5.389-23.703-4.339-33.068,2.597c3.72-17.939,7.457-36.337,4.713-54.451
			c-2.712-17.904-11.567-34.231-20.839-49.786s-19.219-30.999-24.509-48.318c-5.291-17.318-5.341-37.208,4.475-52.425
			c8.584-13.309,23.511-21.315,38.715-25.749c33.065-9.643,70.869-3.954,97.983,17.284c27.115,21.238,41.808,58.216,34.03,91.768
			c-8.558-12.934-21.845-20.419-37.336-21.177c6.787,10.318,10.068,23.265,7.154,35.266c-2.914,12.001-10.986,22.657-21.749,28.713
			c5.598-7.146,9.212-15.83,10.337-24.838c-9.935,13.603-30.353,18.209-45.166,10.189c8.814,9.601,24.854,11.466,35.636,4.144
			c-2.507,10.336-15.052,15.743-25.452,13.516c-10.4-2.226-18.689-10.066-25.162-18.504
			C426.363,279.373,424.073,286.249,425.268,291.986z"/>
		<path clip-path="url(#SVGID_2_)" fill="#8A4F2D" d="M134.768,492.174c5.246-4.323,8.199-10.829,10.135-17.345
			s3.042-13.286,5.497-19.625c5.72-14.768,19.05-26.348,34.473-29.946c-15.539-1.643-29.558,8.923-37.26,22.519
			S136.77,476.677,134.768,492.174z"/>
		<path clip-path="url(#SVGID_2_)" fill="#8A4F2D" d="M435.203,291.108c-3.815,3.966-5.757,9.662-5.16,15.133
			c-1.794-1.133-2.391-3.483-2.394-5.605c-0.003-2.122,0.427-4.265,0.037-6.351c-0.502-2.678-2.279-4.903-3.702-7.226
			c-6.184-10.098-5.655-23.894,1.285-33.489c-2.043,4.595-2.677,11.906-1.276,16.736c-0.256-4.198,0.911-8.47,3.266-11.953
			c-0.919,7.856,2.149,16.076,7.991,21.408C433.635,283.553,432.571,287.936,435.203,291.108z"/>
		<path clip-path="url(#SVGID_2_)" fill="#8A4F2D" d="M400.119,312.844c-1.93-19.884-14.522-36.86-26.206-53.065
			c-11.684-16.205-23.364-34.193-23.009-54.168c0.359-20.248,14.689-39.495,33.983-45.647c-14.427,6.782-22.494,23.303-22.81,39.241
			c-0.316,15.938,5.927,31.318,13.787,45.187c7.86,13.869,17.424,26.749,24.711,40.927c7.287,14.178,12.28,30.198,10.02,45.978
			c2.515-3.166,5.029-6.332,7.544-9.498c-0.413,12.051-8.584,23.48-19.853,27.77C401.358,337.926,401.282,324.829,400.119,312.844z"
			/>
		<path clip-path="url(#SVGID_2_)" fill="#44271B" d="M400.978,338.16c1.772-0.693,3.952-1.174,5.723-1.867
			c2.689-29.164-10.3-59.07-33.585-76.834c10.162,8.831,15.258,23.839,13.223,37.148C397.05,307.462,403.057,323.052,400.978,338.16
			z"/>
		<path clip-path="url(#SVGID_2_)" fill="#44271B" d="M341.624,396.861c-24.18,19.769-59.306,25.138-88.287,13.495
			c16-4.746,30.237-15.216,39.537-29.074c14.834-0.004,28.992-6.955,40.371-16.472s20.372-21.512,29.257-33.391
			c4.626,26.244-5.095,56.041-25.377,73.327"/>
		<path clip-path="url(#SVGID_2_)" fill="#44271B" d="M334.332,368.672c6.663-4.296,13.753-8.112,19.381-13.696
			c5.628-5.584,9.694-13.461,8.417-21.286c5.652,13.723,5.935,29.577,0.777,43.494c-2.494,6.729-6.323,13.128-11.946,17.586
			c-5.623,4.458-13.205,6.76-20.167,5.017c-5.54-1.386-13.803-7.659-13.082-14.302C318.457,378.635,329.162,372.006,334.332,368.672
			z"/>
		<path clip-path="url(#SVGID_2_)" fill="#663821" d="M494.544,276.199c5.128-8.117,7.461-17.964,6.519-27.519
			c8.707,10.881,20.549,23.227,33.46,28.473c-5.746-3.504-10.389-8.789-13.123-14.938c1.621,3.645,12.809,7.42,16.339,8.907
			c6.402,2.696,13.102,4.682,19.937,5.924c13.27,2.41,24.951-0.285,37.957-0.499c28.374-0.467,56.841,6.521,81.715,20.196
			c7.486,4.115,15.013,9.225,18.597,16.979c0.881,1.907,1.455,4.288,0.24,6.002c-2.036,2.874-6.506,1.199-9.541-0.589
			c-21.936-12.924-48.002-18.71-73.346-16.281c-10.686,1.024-21.407,3.464-32.048,2.046c-7.438-0.991-15.763-5.346-16.34-12.828
			c-0.416-5.402,3.131-12.298,8.535-12.684c4.744-0.339,13.831-5.328,16.21,0.65c2.451,6.159-3.665,13.895-8.743,16.463
			c-6.813,3.446-14.918,2.851-22.459,1.651C536.177,294.605,514.846,286.03,494.544,276.199z"/>
		<path clip-path="url(#SVGID_2_)" fill="#8A4F2D" d="M407.946,159.811c-12.817-7.976-25.968-16.09-40.733-19.234
			c-14.765-3.145-31.716-0.382-41.898,10.763c-8.763,9.591-11.042,23.705-9.24,36.571c1.274,9.099,17.811,45.063,29.358,27.129
			c4.089-6.35,4.601-15.27,7.34-22.249c3.942-10.043,10.874-18.249,20.134-23.805C383.4,162.692,395.808,160.033,407.946,159.811z"
			/>
		<path clip-path="url(#SVGID_2_)" fill="#8A4F2D" d="M489.626,310.849c-13.462,8.331-31.138,9.395-45.502,2.74
			c2.675,9.942,15.531,18.217,25.793,17.394C480.18,330.16,488.57,321.09,489.626,310.849z"/>
		<path clip-path="url(#SVGID_2_)" fill="#8A4F2D" d="M463.039,351.309c3.422-0.951,5.196-5.12,4.411-8.583
			c-0.785-3.463-3.506-6.19-6.515-8.076c-3.009-1.886-6.379-3.119-9.484-4.842c-9.622-5.342-16.318-15.629-17.308-26.589
			c-3.495,11.902,11.804,23.731,7.563,35.389c-4.225,11.613-23.635,11.162-27.937,22.746c2.44-1.742,6.412-0.063,8.96,1.518
			s4.918,3.711,7.879,4.183c3.213,0.511,6.357-1.053,9.21-2.619C448.623,359.601,453.362,353.997,463.039,351.309z"/>
		<path clip-path="url(#SVGID_2_)" fill="#8A4F2D" d="M366.119,328.612c-1.689,2.079-3.378,4.157-5.067,6.236
			c1.215,11.192,0.662,22.531-1.797,33.518C368.013,356.467,370.823,342.618,366.119,328.612z"/>
		<path clip-path="url(#SVGID_2_)" fill="#8A4F2D" d="M353.446,453.389c-11.227-8.657-13.818-24.92-10.99-38.812
			c2.828-13.892,9.992-26.453,15.096-39.679c5.104-13.226,9.742-28.642,4.071-41.635c2.306-2.883,4.613-5.766,6.919-8.649
			c12.569,28.731-6.021,66.293,7.967,94.36c-7.665-4.229-13.482-11.681-15.725-20.143c-4.846,10.488,0.107,23.571,9.023,30.92
			c8.915,7.349,20.827,9.963,32.352,10.771c-5.257,8.843-14.848,14.964-25.083,16.007S361.593,459.671,353.446,453.389z"/>
		<path clip-path="url(#SVGID_2_)" fill="#8A4F2D" d="M200.707,428.88c3.21-3.989,8.289-8.21,12.853-5.889
			c2.773,1.411,3.986,4.883,3.653,7.977c-0.333,3.093-1.9,5.901-3.476,8.583c-6.48,11.03-13.679,21.619-21.247,31.928
			c-6.655,9.066-13.908,21.854-22.719,28.658c-5.145-7.033,6.359-29.233,9.556-36.339
			C184.942,451.318,192.126,439.542,200.707,428.88z"/>
		<path clip-path="url(#SVGID_2_)" fill="#8A4F2D" d="M163.828,361.422c-3.434,8.675-14.119,13.705-22.993,10.824
			c10.161,11.191,13.425,28.184,8.132,42.343c-4.125-3.313-9.362-5.216-14.651-5.325c5.698,14.398,1.261,30.814-5.33,44.826
			s-15.368,27.24-18.824,42.334c-3.456,15.094,0.044,33.315,13.243,41.411c-1.761-12.604,6.465-25.881,18.535-29.917
			c-10.213,13.93-13.305,32.813-8.068,49.273c2.836,8.913,7.681,19.478,1.72,26.686c-1.682-12.874-5.501-25.466-11.253-37.105
			c-2.045-4.138-4.696-8.475-9.053-10c-4.758-1.665-10.203,0.722-13.478,4.554c-3.275,3.832-4.801,8.831-5.984,13.732
			c-4.931,20.425-5.306,41.936-1.09,62.521c-8.461-7.503-12.802-18.793-14.09-30.027s0.176-22.582,1.638-33.796
			c-9.651,14.013-12.772,32.334-8.306,48.752c0.828,3.044,1.913,6.134,1.568,9.269c-0.345,3.136-2.686,6.342-5.841,6.383
			c-3.044,0.04-5.324-2.699-6.937-5.28c-5.764-9.228-9.2-19.729-11.649-30.331c-10.329-44.714-3.322-93.202,19.243-133.163
			c7.132-12.63,15.973-25.079,17.279-39.525c1.242-13.734-4.552-26.98-7.825-40.376c-3.938-16.119-4.164-33.112-0.825-49.357
			c2.573-12.52,7.893-35.572,22.847-38.704c27.367-5.731,20.385,33.635,25.895,48.747
			C133.49,345.962,147.301,358.059,163.828,361.422z"/>
		<path clip-path="url(#SVGID_2_)" fill="#8A4F2D" d="M259.241,338.128c-1.484,7.276,1.603,15.285,7.587,19.682
			c-20.076-8.997-29.967-35.661-20.617-55.574c1.853-3.947,4.332-7.614,5.727-11.745c1.395-4.131,1.529-9.034-1.09-12.52
			c-1.918,5.123-6.642,9.093-12.019,10.098s-11.217-0.989-14.856-5.073c-3.133,4.199,2.592,11.125,7.306,8.838
			c-3.607,9.768-17.101,12.905-26.423,8.263s-14.815-14.638-17.691-24.646c-8.302-28.902,2.153-62.287,25.458-81.291
			s58.111-22.525,84.751-8.576c5.547,2.905,10.885,6.635,14.213,11.939c4.512,7.192,4.726,16.182,4.682,24.671
			c-0.156,30.111-1.821,60.214-4.988,90.158c-1.838,17.381-1.654,49.828-26.815,47.339
			C276.228,358.876,256.942,349.399,259.241,338.128z"/>
		<g clip-path="url(#SVGID_2_)">
			<path d="M213.115,408.117c-2.58-1.519-5.192-3.107-7.944-3.692c-2.657-0.892-5.497-0.393-7.991,0.984
				c-2.524,1.346-4.773,3.299-7.203,5.105c-2.469,1.795-5.124,3.344-7.919,4.575c-5.614,2.392-11.726,3.636-17.827,3.486
				c-3.045-0.067-6.1-0.392-9.064-1.137c-2.895-1.004-5.685-2.248-8.214-3.882c2.839,1.007,5.703,1.794,8.615,2.206
				c2.839,0.716,5.771,1.025,8.694,1.09c5.858,0.146,11.731-1.053,17.109-3.344c2.679-1.181,5.21-2.658,7.579-4.378
				c2.365-1.75,4.656-3.761,7.422-5.244c1.373-0.742,2.898-1.311,4.508-1.531c1.605-0.225,3.278-0.076,4.801,0.409
				C208.674,403.977,210.959,406.041,213.115,408.117z"/>
		</g>
		<g clip-path="url(#SVGID_2_)">
			<path d="M392.557,310.115c-0.814-1.111-2.015-1.86-3.307-2.155c-1.282-0.336-2.637-0.297-3.9,0.002
				c-2.534,0.629-4.574,2.47-6.257,4.48c-1.773,1.967-3.418,4.191-5.082,6.349c-1.655,2.175-3.289,4.367-4.911,6.571
				c-6.493,8.806-12.882,17.757-20.125,26.061c-7.225,8.285-15.434,15.906-24.984,21.551c-4.758,2.821-9.801,5.226-15.125,6.832
				c-5.391,1.349-10.951,2.022-16.433,1.663c5.48-0.341,10.847-1.453,15.925-3.31c5.173-1.559,10.095-3.905,14.751-6.666
				c4.651-2.779,9.045-6.002,13.114-9.599c4.079-3.584,7.862-7.51,11.454-11.606c7.169-8.218,13.531-17.128,20.036-25.95
				c1.625-2.207,3.265-4.407,4.927-6.592l2.514-3.264c0.857-1.072,1.677-2.204,2.662-3.219c1.991-1.969,4.447-3.781,7.363-4.205
				c1.427-0.189,2.889-0.078,4.222,0.421C390.737,307.962,391.89,308.916,392.557,310.115z"/>
		</g>
		<g clip-path="url(#SVGID_2_)">
			<path d="M361.655,334.585c0.58,3.916,0.94,7.857,1.217,11.82c-0.022,3.963-0.168,7.932-0.548,11.888
				c-0.746,7.903-2.421,15.793-5.517,23.171c-3.089,7.346-7.386,14.061-9.31,21.562c-0.935,3.701-1.176,7.619-0.464,11.348
				c0.419,3.766,1.961,7.5,4.836,10.256c-3.337-2.208-5.506-5.988-6.528-9.931c-0.765-4.029-0.503-8.169,0.487-12.098
				c2.033-7.861,6.393-14.633,9.391-21.803c3.014-7.18,4.656-14.89,5.391-22.667c0.368-3.892,0.532-7.809,0.527-11.729
				C361.429,342.481,361.513,338.541,361.655,334.585z"/>
		</g>
		<g clip-path="url(#SVGID_2_)">
			<path d="M319.239,382.391c1.477-1.861,3.024-3.647,4.573-5.431l2.586-2.392c0.864-0.797,1.797-1.577,2.7-2.355
				c3.743-2.986,7.84-5.404,11.9-7.765c4.061-2.357,8.11-4.696,11.735-7.549c1.774-1.458,3.495-2.992,4.907-4.778
				c1.731-1.537,3.034-3.447,4.375-5.416c-0.701,2.251-1.673,4.499-3.043,6.509c-1.508,1.902-3.316,3.515-5.165,5.032
				c-3.767,2.964-7.887,5.335-11.943,7.691c-4.054,2.356-8.074,4.736-11.684,7.616c-0.874,0.756-1.746,1.481-2.609,2.277
				l-2.577,2.402C323.1,379.645,321.204,381.055,319.239,382.391z"/>
		</g>
		<g clip-path="url(#SVGID_2_)">
			<path d="M405.283,411.118c-0.694-2.482-0.873-5.186-0.185-7.755c0.334-1.281,0.86-2.517,1.546-3.66
				c0.661-1.141,1.581-2.202,2.417-3.131c1.58-1.807,1.865-4.394,1.43-6.745c-0.212-1.187-0.561-2.36-1.04-3.477
				c-0.477-1.109-1.151-2.164-1.871-3.192c-1.458-2.052-3.196-3.959-4.795-6.056c-1.613-2.082-2.988-4.463-3.873-6.98
				c-1.826-5.054-2.039-10.457-1.683-15.663c0.386-5.235,1.405-10.33,2.104-15.418c0.718-5.082,1.053-10.19,0.288-15.21
				c-1.416-10.043-6.435-19.549-13.926-26.374l-0.417-0.38l0.178-0.531c0.85-2.539,1.156-5.242,0.979-7.925
				c-0.172-2.687-0.803-5.348-1.71-7.918c-1.829-5.151-4.678-9.932-7.728-14.55c-1.53-2.304-3.143-4.565-4.804-6.801
				c-1.596-2.283-3.146-4.615-4.662-6.972c-3.01-4.713-5.775-9.683-7.372-15.049c2.056,5.201,5.086,9.894,8.386,14.352
				c1.644,2.239,3.392,4.405,5.073,6.633c1.617,2.275,3.264,4.54,4.815,6.885c3.083,4.672,6.004,9.55,7.917,14.929
				c0.946,2.684,1.62,5.499,1.804,8.383c0.19,2.878-0.14,5.821-1.064,8.577l-0.239-0.91c7.801,7.111,12.998,16.965,14.475,27.407
				c0.797,5.227,0.441,10.554-0.287,15.69c-0.71,5.151-1.719,10.221-2.092,15.307c-0.349,5.064-0.124,10.24,1.585,14.955
				c0.836,2.363,2.075,4.516,3.622,6.52c1.534,2.016,3.288,3.938,4.829,6.103c1.521,2.141,2.888,4.67,3.192,7.42
				c0.15,1.369,0.1,2.776-0.244,4.134c-0.328,1.359-1.032,2.648-2.015,3.647c-0.957,0.929-1.801,1.776-2.521,2.828
				c-0.717,1.026-1.295,2.155-1.698,3.352C404.887,405.937,404.788,408.58,405.283,411.118z"/>
		</g>
		<g clip-path="url(#SVGID_2_)">
			<path d="M420.668,364.254c-1.046-0.308-2.04-0.564-3.034-0.706c-0.886-0.394-1.825-0.665-2.777-0.851
				c-1.907-0.365-3.893-0.329-5.767,0.139c-1.875,0.466-3.646,1.366-5.159,2.582c-0.757,0.608-1.45,1.296-2.061,2.049
				c-0.815,0.589-1.574,1.283-2.341,2.052c0.149-1.079,0.519-2.126,1.004-3.138c0.689-0.848,1.468-1.621,2.319-2.305
				c1.7-1.367,3.692-2.381,5.822-2.911c2.13-0.53,4.364-0.569,6.507-0.159c1.073,0.202,2.119,0.53,3.132,0.941
				C419.219,362.607,420.038,363.36,420.668,364.254z"/>
		</g>
		<g clip-path="url(#SVGID_2_)">
			<path d="M411.969,373.948c0.522-0.239,1.105-0.387,1.717-0.408c0.608,0.004,1.22,0.131,1.807,0.341
				c1.163,0.45,2.18,1.236,3.003,2.19c0.721,1.009,1.221,2.254,1.47,3.42c0.276,1.181,0.386,2.362,0.472,3.511
				c0.162,2.307,0.227,4.491,0.948,6.529c0.676,2.061,1.757,4.017,2.874,5.993c1.115,1.976,2.278,4.003,3.085,6.244
				c0.823,2.247,1.139,4.672,1.017,7.052c-0.156,2.378-0.713,4.736-1.73,6.896c-1.218,2.063-2.861,3.837-4.765,5.128
				c1.434-1.801,2.544-3.762,3.2-5.85c0.926-1.961,1.43-4.112,1.574-6.271c0.107-2.165-0.173-4.338-0.918-6.373
				c-0.736-2.05-1.843-3.997-2.964-5.98c-1.118-1.981-2.264-4.031-3.011-6.303c-0.804-2.286-0.871-4.722-1.028-6.939
				c-0.173-2.231-0.429-4.413-1.645-6.059c-0.485-0.906-1.156-1.735-2.015-2.346C414.205,374.117,413.121,373.772,411.969,373.948z"
				/>
		</g>
		<g clip-path="url(#SVGID_2_)">
			<path d="M399.629,338.613c0.406-0.242,0.804-0.468,1.197-0.675l1.149-0.662l1.211-0.332l1.189-0.407
				c1.57-0.586,3.078-1.343,4.489-2.249c1.411-0.906,2.727-1.962,3.913-3.146l0.865-0.912c0.276-0.315,0.533-0.646,0.813-0.957
				l1.083-0.769c0.351-0.272,0.719-0.542,1.103-0.814c-0.101,0.45-0.217,0.902-0.35,1.351c-0.151,0.437-0.323,0.867-0.491,1.31
				c-0.282,0.351-0.588,0.683-0.875,1.03l-0.93,0.98c-1.275,1.272-2.686,2.405-4.199,3.377c-1.514,0.972-3.131,1.784-4.818,2.413
				l-1.278,0.438l-1.298,0.375c-0.471-0.026-0.936-0.052-1.395-0.096C400.54,338.801,400.081,338.715,399.629,338.613z"/>
		</g>
		<g clip-path="url(#SVGID_2_)">
			<path d="M405.71,337.949c1.019-3.808,1.491-7.729,1.499-11.628c0.002-3.903-0.489-7.784-1.329-11.573
				c-1.426-7.637-4.316-14.979-8.076-21.798c-7.582-13.71-18.282-25.394-27.767-38.003c-4.746-6.315-9.185-12.919-12.749-20.03
				c-3.557-7.093-6.211-14.748-7.118-22.71c-0.899-7.971,0.215-16.163,3.337-23.57c1.693-3.643,3.899-7.048,6.613-9.979
				c2.701-2.937,5.942-5.365,9.519-7.028c-3.42,1.965-6.401,4.593-8.839,7.617c-2.437,3.031-4.329,6.461-5.707,10.062
				c-2.998,7.109-4.079,15.03-3.211,22.701c0.878,7.714,3.456,15.174,6.946,22.135c3.496,6.978,7.877,13.502,12.585,19.766
				c9.412,12.525,20.177,24.259,27.898,38.205c3.84,6.955,6.779,14.459,8.274,22.312
				C408.791,322.301,408.452,330.525,405.71,337.949z"/>
		</g>
		<g clip-path="url(#SVGID_2_)">
			<path d="M457.874,341.064c0.205-2.886-0.434-5.662-1.571-8.172c-0.893-2.609-2.305-5.027-3.974-7.283
				c-3.326-4.518-7.573-8.541-10.643-13.544c-3.11-4.922-5.417-10.354-6.753-16.02c-0.669-2.832-1.109-5.719-1.31-8.623
				c0.089-2.921,0.354-5.822,0.986-8.638c0.063,2.883,0.25,5.729,0.733,8.52c0.194,2.808,0.62,5.601,1.267,8.342
				c1.292,5.484,3.526,10.74,6.531,15.496c2.937,4.806,7.104,8.75,10.577,13.447c1.737,2.338,3.239,4.929,4.227,7.737
				C458.688,335.207,458.795,338.313,457.874,341.064z"/>
		</g>
		<g clip-path="url(#SVGID_2_)">
			<path d="M488.413,215.363c2.5,3.673,4.777,7.498,6.883,11.445c1.843,4.065,3.427,8.269,4.577,12.61
				c1.16,4.334,1.858,8.823,1.838,13.343c0.006,4.511-0.669,9.053-2.136,13.332c-2.846,8.574-8.496,16.235-15.991,21.33
				c-3.724,2.574-7.89,4.471-12.225,5.738c-4.419,0.972-8.961,1.271-13.374,0.742c4.437-0.169,8.804-0.917,12.898-2.398
				c4.16-1.217,8.16-3.037,11.728-5.504c7.172-4.872,12.598-12.225,15.329-20.453c2.82-8.239,2.56-17.284,0.266-25.689
				c-1.124-4.221-2.654-8.345-4.492-12.334C492.155,223.406,490.283,219.393,488.413,215.363z"/>
		</g>
		<g clip-path="url(#SVGID_2_)">
			<path d="M175.23,426.066l0.732-0.07l0.003,0.139c-1.728,0.278-3.406,0.698-5.017,1.279c-1.615,0.58-3.123,1.379-4.614,2.172
				c-3.042,1.494-5.782,3.582-8.227,5.954c-4.907,4.776-8.357,10.876-10.835,17.294c-2.502,6.438-4.102,13.212-5.735,19.994
				c-0.821,3.392-1.649,6.796-2.631,10.167c-1.248,3.293-2.573,6.562-4.24,9.649c0.514-1.676,0.985-3.356,1.432-5.037
				c0.428-1.688,0.813-3.383,1.165-5.085c0.942-3.336,1.784-6.709,2.598-10.099c1.632-6.773,3.245-13.627,5.803-20.213
				c2.533-6.561,6.104-12.906,11.235-17.901c1.284-1.237,2.636-2.407,4.076-3.469c1.448-1.052,2.981-1.981,4.565-2.832
				c1.64-0.746,3.383-1.239,5.124-1.618c1.761-0.319,3.537-0.464,5.294-0.395l0.003,0.139L175.23,426.066z"/>
		</g>
		<path clip-path="url(#SVGID_2_)" fill="none" stroke="#000000" stroke-width="1.7233" stroke-miterlimit="10" d="M402.223,300.211
			c5.399,11.158,6.81,24.197,3.923,36.252"/>
		<path clip-path="url(#SVGID_2_)" fill="#8A4F2D" d="M376.29,374.595c-0.668,3.573,1.232,7.476,4.456,9.154
			c1.285,0.668,2.916,1.198,3.312,2.591c0.396,1.395-0.718,2.709-1.61,3.851c-3.877,4.967-3.512,10.277-2.817,16.054
			C370.803,400.393,373.109,382.776,376.29,374.595z"/>
		<path clip-path="url(#SVGID_2_)" fill="#8A4F2D" d="M422.632,294.854c-8.7-10.81-12.697-25.277-10.781-39.02
			c-2.191,3.506-3.426,7.604-3.537,11.737c-0.925-4.223-1.011-8.627-0.251-12.883c-3.683,5.164-5.329,11.742-4.511,18.032
			c0.818,6.29,4.09,12.229,8.97,16.28c-1.108,6.041,0.454,13.693,4.408,18.393C415.587,302.092,417.591,296.975,422.632,294.854z"/>
		<path clip-path="url(#SVGID_2_)" fill="#C6824F" d="M506.633,489.036c0.252,0.252,0.504,0.504,0.756,0.756"/>
		<path clip-path="url(#SVGID_2_)" fill="#8A4F2D" d="M339.369,385.453c0.664-7.056,4.046-13.822,9.292-18.587
			c-5.389,0.024-10.638,1.881-14.483,5.657c-1.962,1.928-3.617,4.574-3.124,7.28c0.378,2.074,2.001,3.776,3.917,4.654
			S337.266,385.601,339.369,385.453z"/>
		<g clip-path="url(#SVGID_2_)">
			<path d="M350.967,365.448c-0.335,0.478-0.669,0.937-1.007,1.376l-0.943,1.364l-1.131,1.129l-1.051,1.205
				c-1.351,1.652-2.496,3.474-3.406,5.406c-0.91,1.932-1.586,3.976-1.999,6.069l-0.26,1.578c-0.059,0.53-0.094,1.061-0.158,1.591
				l-0.454,1.596c-0.122,0.54-0.259,1.091-0.408,1.653c-0.185-0.54-0.359-1.092-0.516-1.654c-0.124-0.561-0.228-1.132-0.341-1.71
				l0.169-1.701l0.278-1.686c0.441-2.235,1.162-4.411,2.131-6.47c0.97-2.058,2.189-4,3.631-5.763l1.123-1.288l1.198-1.22
				c0.515-0.285,1.023-0.566,1.535-0.828C349.891,365.86,350.429,365.644,350.967,365.448z"/>
		</g>
		<g clip-path="url(#SVGID_2_)">
			<path d="M142.064,697.047c-5.577-6.217-9.528-13.897-11.822-21.98c-2.257-8.093-2.887-16.708-1.362-24.92
				c-0.157,8.328,0.78,16.551,3.02,24.454C134.102,682.515,137.587,690.023,142.064,697.047z"/>
		</g>
		<g clip-path="url(#SVGID_2_)">
			<path d="M118.163,709.183c-5.965-7.881-10.009-17.228-12.158-26.928c-2.111-9.709-2.351-19.891-0.227-29.545
				c-0.764,9.833-0.198,19.651,1.909,29.176C109.755,691.419,113.35,700.575,118.163,709.183z"/>
		</g>
		<g clip-path="url(#SVGID_2_)">
			<path d="M96.496,705.374c-4.702-6.887-7.483-15.087-8.448-23.425c-0.458-4.178-0.483-8.408,0.01-12.575
				c0.469-4.168,1.47-8.269,2.984-12.146c-1.723,8.134-2.222,16.389-1.283,24.527C90.661,689.898,92.993,697.834,96.496,705.374z"/>
		</g>
		<use xlink:href="#SVGID_1_"  overflow="visible" fill="none" stroke="#000000" stroke-width="1.7233" stroke-miterlimit="10"/>
	</g>
	<path fill="#F6203B" stroke="#000000" stroke-width="1.2925" stroke-miterlimit="10" d="M213.507,318.772
		c-2.582,2.194-3.525,6.113-2.224,9.241c1.301,3.129,4.744,5.223,8.121,4.94s5.959-2.621,6.721-5.922
		c5.147-0.699,10.238-1.484,15.429-1.291c0.81,3.133,4.247,5.227,7.461,4.842s5.949-2.972,6.87-6.075
		c0.921-3.102-0.256-6.154-2.084-8.825c2.225-2.68,2.66-6.712,1.06-9.805c-1.601-3.093-5.144-5.066-8.617-4.798
		c-3.473,0.268-6.785,3.233-7.892,6.536c-1.093-1.457-3.028-2.232-4.824-1.933s-3.376,1.659-3.938,3.391
		c-2.315-2.894-6.312-4.972-10.009-5.218c-3.697-0.246-7.612,1.736-9.065,5.145C209.062,312.408,210.008,317.554,213.507,318.772z"
		/>
	<path fill="#F4C6CE" d="M252.176,314.289c0.855-2.288,0.707-4.931-0.4-7.108c-1.106-2.177-3.154-3.856-5.506-4.514
		c2.683,0.168,5.579,1.429,6.703,3.87S253.792,312.141,252.176,314.289z"/>
	<path fill="#F4C6CE" d="M250.76,328.783c2.995-3.019,3.437-8.228,0.992-11.708c2.072,1.409,3.053,3.566,2.491,6.009
		C253.681,325.526,252.659,327.148,250.76,328.783z"/>
	<circle cx="234.342" cy="309.049" r="1.31"/>
	<path fill="#F4C6CE" d="M234.32,310.923c-0.594,0.049-1.205-0.22-1.57-0.69c-0.365-0.471-0.474-1.129-0.279-1.692
		c-0.467,0.741-0.575,1.784,0.071,2.374C233.188,311.505,233.624,311.454,234.32,310.923z"/>
	<path fill="#F4C6CE" d="M235.262,310.551c0.562-0.369,0.879-1.079,0.778-1.744c-0.101-0.665-0.615-1.249-1.262-1.434
		c0.827,0.015,1.676,0.558,1.775,1.379S236.062,310.339,235.262,310.551z"/>
	<g>
		<defs>
			<path id="SVGID_3_" d="M227.316,298.918c-2.441,1.125-5.171,1.693-7.842,1.388c-6.398-0.731-11.217-6.163-14.427-11.745
				c-3.21-5.582-5.631-14.121-10.213-18.646c4.123,29.085-2.633,59.584-18.651,84.208c-5.969,9.176-15.528,18.446-26.238,16.181
				c-6.571-1.389-11.464-6.844-15.229-12.406c-8.929-13.19-14.205-28.496-18.37-43.87c-7.488-27.642-11.706-56.412-9.498-84.964
				c1.863-24.094,8.244-47.58,14.595-70.897c3.17-11.637,6.847-24.073,16.263-31.611c5.049-4.042,11.397-6.332,16.075-10.798
				c14.127-13.49,12.135-35.596,21.549-52.711c11.82-21.49,36.441-34.737,60.966-34.577s48.247,12.983,63.357,32.302
				c15.11,19.319,21.149,44.47,19.609,68.948c6.531,3.019,13.442,6.368,17.161,12.526c3.001,4.969,3.448,11.016,3.818,16.809
				c0.403,6.318-1.139,12.598,1.251,18.46c12.775,31.338,11.328,66.403,9.679,100.205c-0.624,12.794-1.249,25.589-1.873,38.383
				c-0.315,6.451-0.782,16.298-7.2,17.01c-8.495,0.943-16.461,5.879-21.086,13.067c-4.247,6.6-6.501,15.579-13.817,18.422
				c-6.378,2.479-13.513-1.191-18.611-5.755c-14.02-12.552-19.095-33.199-14.521-51.452c-3.831,1.979-8.72,0.459-11.883-2.472
				c-3.162-2.931-4.984-6.994-6.723-10.939c-1.515-3.436-3.292-6.634-4.725-10.105c-0.623-1.508-1.399-3.17-2.929-3.738
				c-1.36-0.505-2.926,0.064-4.016,1.022c-1.09,0.958-1.814,2.252-2.577,3.487C237.008,291.457,234.581,295.572,227.316,298.918z"/>
		</defs>
		<clipPath id="SVGID_4_">
			<use xlink:href="#SVGID_3_"  overflow="visible"/>
		</clipPath>
		<path clip-path="url(#SVGID_4_)" fill="#E59B6A" d="M330.376,51.77c-7.59-20.236-32.918-29.68-53.942-24.671
			s-37.751,21.195-49.707,39.199c-12.318,18.55-20.828,40.253-20.52,62.519c0.161,11.578,2.676,22.989,3.614,34.53
			c1.501,18.462-1.049,36.988-3.616,55.333c-3.25,23.219-6.533,46.901-2.416,69.982s16.97,45.885,38.173,55.891
			c15.962,7.533,34.966,6.953,51.594,1.033c16.628-5.92,31.107-16.782,43.712-29.138c41.666-40.843,64.531-100.15,61.066-158.392
			c-1.47-24.709-7.629-49.517-20.81-70.469s-33.85-37.755-57.961-43.355"/>
		<path clip-path="url(#SVGID_4_)" fill="#C68655" d="M288.004,193.258c5.029-4.563,6.601-11.798,6.997-18.578
			c0.396-6.779-0.09-13.733,1.936-20.215c1.121-3.587,2.981-6.91,4.086-10.502c1.105-3.592,1.367-7.714-0.599-10.917
			c-2.411-3.928-7.781-5.392-12.194-4.063c-5.423,1.632-9.064,6.519-10.97,11.621c-2.078,5.563-1.019,8.61,1.557,13.591
			C285.018,166.187,288.179,179.763,288.004,193.258z"/>
		<path clip-path="url(#SVGID_4_)" fill="#A87042" d="M283.02,178.821c0.561,4.626,0.58,9.44,2.491,13.69
			c1.91,4.25,6.489,7.805,11.004,6.65c-2.343,5.868-2.804,12.284-3.569,18.555s-1.941,12.715-5.456,17.965
			c-3.515,5.25-9.928,9.028-16.102,7.681c-6.482-1.414-10.617-7.694-13.415-13.709c-9.653-20.753-11.631-45.322-5.405-67.362
			c2.05-7.258,7.602-17.608,16.827-12.857C277.899,153.817,281.982,170.266,283.02,178.821z"/>
		<path clip-path="url(#SVGID_4_)" fill="#A87042" d="M281.284,336.203c-6.801-16.178-2.582-34.883,4.216-51.062
			c6.797-16.179,16.127-31.493,19.854-48.642c3.026-13.921,2.2-28.399,4.345-42.482s8.17-28.763,20.57-35.778
			c-10.096,9.589-14.316,23.928-15.418,37.808c-1.102,13.88,0.49,27.84-0.021,41.754c-0.51,13.914-3.42,28.377-12.212,39.174
			c8.685,1.552,18.847-2.702,25.036-8.99c6.189-6.288,10.132-14.395,13.855-22.394c7.872-16.914,15.296-34.198,19.207-52.44
			s4.146-37.647-2.169-55.202c-2.472-6.871-6.109-13.612-11.977-17.958c-5.868-4.346-14.345-5.747-20.529-1.864
			c2.538-5.923-0.34-13.599-6.146-16.394c-0.36,34.521-20.083,65.842-25.966,99.86c-2.695,15.581-2.456,31.611-5.942,47.034
			s-11.678,30.956-25.955,37.753c-5.169,2.461-11.115,3.799-15.117,7.893c-6.341,6.487-5.248,17.177-2.005,25.649
			c3.802,9.933,9.966,18.953,17.839,26.105c5.03,4.569,13.05,8.335,18.162,3.858C286.005,345.425,283.908,342.445,281.284,336.203z"
			/>
		<path clip-path="url(#SVGID_4_)" fill="#895934" d="M171.428,160.096c5.182,21.763,12.153,43.18,15.008,65.369
			c1.007,7.826,1.487,15.843-0.206,23.55s-5.784,15.14-12.356,19.505c-11.003,7.308-26.32,4.294-37.134-3.29
			c-21.172-14.847-28.461-42.908-29.524-68.745c-1.022-24.864,2.734-50.637,13.901-73.078c4.85-9.746,12.361-23.383,21.939-29.269
			c10.9-6.697,19.281,5.398,21.424,15.114C168.134,125.823,167.424,143.283,171.428,160.096z"/>
		<path clip-path="url(#SVGID_4_)" fill="#A87042" d="M182.383,35.445c-8.579,5.162-14.414,14.087-17.55,23.596
			c-3.136,9.509-3.816,19.643-3.982,29.655c-0.777,46.819,9.317,93.785,29.263,136.15c1.854,3.938,3.927,8,7.471,10.528
			c2.988,2.131,6.73,2.94,10.392,3.188c17.384,1.176,34.358-9.756,39.828-26.299c16.47-4.031,30.228-19.377,30.736-36.325
			c0.625-20.866-9.367-34.04-25.066-40.447c13.61,2.603,26.23,14.305,29.296,27.817c-0.394-5.74,0.441-13.079,3.204-18.126
			c-2.351,11.799,1.176,24.622,9.23,33.559c-2.328-8.142-0.857-16.941,2.012-24.909c2.869-7.968,7.082-15.376,10.452-23.145
			c3.371-7.769,5.928-16.162,5.19-24.598c-0.738-8.436-5.331-16.923-13.041-20.427c-7.71-3.504-16.723,4.54-19.865,12.405
			c-3.024-10.893,2.968-23.556,13.309-28.126c-9.061-2.281-19.366,1.866-24.321,9.788c3.63-8.451,13.184-13.932,22.312-12.801
			c-2.614-4.562-6.941-8.116-11.924-9.793c6.385,0.585,12.5,3.731,16.688,8.586c4.188,4.855,6.403,11.366,6.044,17.768
			c11.717,10.983,19.447,27.649,17.617,43.605c12.124-23.831,14.08-53.114,3.147-77.514c-10.933-24.4-35.236-42.858-61.909-44.713
			s-54.227,14.173-63.943,39.082c-0.226-3.824-1.896-9.412-5.412-10.931C188.045,31.5,185.665,33.471,182.383,35.445z"/>
		<path clip-path="url(#SVGID_4_)" fill="#704624" d="M162.511,144.051c-7.787-13.483-8.839-30.646-2.755-44.978
			c-16.823,9.103-30.742,23.481-39.294,40.591s-11.697,36.873-8.879,55.793c1.424-13.208,3.433-26.539,8.702-38.734
			s14.17-23.285,26.281-28.744c-24.538,31.814-31.495,76.368-17.825,114.148c1.851,5.115,4.175,10.28,8.268,13.863
			s10.374,5.17,15.087,2.454c0.934,4.134,1.938,8.419,4.558,11.75c2.62,3.331,7.356,5.405,11.211,3.644
			c2.849-1.302,4.52-4.287,5.642-7.212c4.983-12.978,2.791-27.641-1.52-40.857s-10.65-25.759-14.075-39.232
			c-3.425-13.473-3.592-28.625,3.86-40.361c-5.202,18.525,1.006,38.113,6.985,56.402c5.979,18.289,11.799,38.106,5.882,56.415
			c-1.959,6.061-5.16,11.732-6.379,17.983c-1.219,6.251,0.123,13.654,5.437,17.165c4.005,2.647,9.466,2.409,13.736,0.214
			c4.27-2.195,7.463-6.084,9.748-10.305c5.593-10.332,6.224-22.758,4.198-34.33c-2.027-11.573-6.521-22.541-10.765-33.497
			c-11.593-29.925-21.644-61.152-21.559-93.244c0.021-8.09,1.056-17.138-1.726-24.919c-1.939-5.422-3.14-4.9-4.619,0.135
			C158.542,112.395,159.1,129.89,162.511,144.051z"/>
		<path clip-path="url(#SVGID_4_)" fill="#8A4F2D" d="M323.823,154.002c1.162-4.423,5.075-7.995,9.586-8.75
			c4.511-0.755,9.374,1.349,11.912,5.153c-0.421-7.239-1.473-14.772-5.619-20.721c-4.805-6.894-14.668-11.477-18.934-2.558
			c-1.978,4.136-2.46,9.427-1.97,13.917C319.099,143.784,324.218,152.499,323.823,154.002z"/>
		<path clip-path="url(#SVGID_4_)" fill="#895A30" d="M320.267,294.877c6.546,5.747,16.62,6.206,24.606,2.727
			c7.986-3.479,14.102-10.287,18.657-17.712c11.534-18.801,14.15-42.82,6.934-63.664c-4.611-13.319-12.933-25.217-16.614-38.822
			c-4.412-16.306-1.545-34.439,7.682-48.588c-13.452,6.494-23.488,19.64-26.205,34.328c-1.845,9.974-0.478,20.234-0.854,30.37
			c-0.404,10.877-2.846,21.676-7.162,31.668c-1.204,2.788-3.076,5.892-6.104,6.127c-2.64,0.204-4.958-2.066-5.73-4.599
			c-0.772-2.532-0.371-5.255,0.037-7.871c-3.063,5.561-2.439,11.164-1.037,17.356c1.402,6.192,3.53,12.355,3.245,18.697
			c-0.52,11.562-8.981,22.75-5.56,33.806c1.7,5.492,6.438,9.934,12.029,11.276c5.59,1.342,11.829-0.466,15.836-4.588"/>
		<path clip-path="url(#SVGID_4_)" fill="#8A4F2D" d="M284.412,251.74c-6.621-2.091-14.016,1.638-18.096,7.257
			c-4.08,5.619-5.485,12.717-6.282,19.614c-2.919,25.271,2.11,53.352,21.053,70.332c-9.226-13.837-7.291-32.378-1.724-48.049
			c5.567-15.671,14.359-30.201,18.246-46.371c3.836-15.958,2.69-32.66,4.636-48.956s7.543-34.977,21.329-43.883
			c-6.66-5.412-10.279-15.408-8.87-23.874c-8.361,14.263-14.341,29.919-17.616,46.124c-3.161,15.639-9.664,29.115-9.933,45.067
			C287.018,237.128,288.957,245.002,284.412,251.74z"/>
		<path clip-path="url(#SVGID_4_)" fill="#8A4F2D" d="M269.634,143.238c0.946-3.671-1.81-7.289-4.884-9.508
			c-3.074-2.219-6.723-3.819-9.005-6.846c-3.081-4.086-2.903-9.665-2.862-14.782s-0.477-10.861-4.357-14.198
			c0.826,9.409-1.846,19.085-7.384,26.737c0.367-5.086-4.688-9.524-9.787-9.448c-5.098,0.076-9.648,3.835-11.755,8.479
			c-2.29,5.048-1.773,11.432,3.281,14.517c4.525,2.763,7.699,0.287,12.158-1.06C246.54,133.654,259.971,136.197,269.634,143.238z"/>
		<path clip-path="url(#SVGID_4_)" fill="#8A4F2D" d="M247.481,165.259c1.393-11.286-5.196-23.107-15.527-27.858
			c3.199,0.308,7.953-3.22,11.153-2.912c-1.593-7.244-8.507-9.832-14.983-13.449c4.15-6.833,3.961-16.061-0.466-22.718
			c-0.286,6.207-2.623,12.303-6.56,17.111c2.832-8.234,2.773-17.431-0.164-25.629c-0.471,7.489-2.996,14.839-7.228,21.035
			c2.764-11.411-4.894-24.321-16.234-27.366c-11.34-3.045-24.435,4.292-27.759,15.553c1.404-13.427,7.932-26.254,17.96-35.291
			c10.028-9.038,23.462-14.202,36.962-14.207c-2.71-1.802-4.376-3.164-7.085-4.966c7.563-2.467,15.948,2.467,20.057,9.279
			s4.959,15.034,5.713,22.953c1.268-11.171,6.488-21.853,14.522-29.718c-4.143,7.485-5.789,16.325-4.617,24.8
			c2.458-11.143,12.135-20.33,23.391-22.206c-5.577-5.275-12.867-8.709-20.485-9.653c23.792,1.897,46.089,17.062,56.596,38.492
			c-4.094-18.006-9.609-36.458-22.675-49.506c-13.067-13.048-31.023-21.571-49.489-21.57c-21.613,0.001-41.95,11.455-57.253,26.718
			c-18.422,18.373-31.149,44.211-27.829,70.016c3.586-9.509,8.34-18.577,14.12-26.936c-7.393,25.588-6.222,53.571,3.284,78.451
			c-1.735-8.308-2.705-16.999-4.44-25.306c11.849,16.389,9.05,38.989,15.675,58.097c2.745,7.917,7.106,15.188,9.99,23.055
			s4.187,16.859,0.718,24.487c6.343-14.289,6.717-30.671,8.038-46.249c1.321-15.578,4.844-32.184,16.329-42.79
			c-8.532,12.589-12.234,28.367-10.192,43.437c0.662,4.881-0.607,9.997-3.472,14.004c9.796,0.406,19.699-3.282,26.843-9.997
			C239.519,187.705,246.28,174.99,247.481,165.259z"/>
		<path clip-path="url(#SVGID_4_)" fill="#8A4F2D" d="M295.744,118.95c4.862,0.263,7.727,6.071,7.069,10.895
			c-0.658,4.825-3.623,8.96-5.837,13.297c-5.595,10.96-6.468,24.233-2.357,35.832c-0.691-9.155,2.762-18.118,6.981-26.272
			c4.219-8.154,9.29-15.937,12.268-24.621s3.623-18.72-0.912-26.702c1.718,7.199,0.661,15.024-2.905,21.51
			c1.662-7.75,0.506-16.073-3.206-23.077C307.313,107.892,302.67,114.762,295.744,118.95z"/>
		<path clip-path="url(#SVGID_4_)" fill="#8A4F2D" d="M279.315,110.345c-4.526-0.072-8.978-2.221-11.85-5.72
			c-5.547-6.759-4.466-16.943-0.644-24.807c1.891-3.892,4.445-7.578,8.012-10.027c3.567-2.449,8.671-4.455,12.733-2.965
			c-6.678,1.491-12.937,7.236-15.715,13.489c-2.777,6.253-2.41,13.813,0.961,19.767c-2.457-8.321,3.768-17.71,12.158-19.919
			c8.39-2.209,17.675,1.99,22.777,9.008c-2.365-3.291-6.224-5.05-10.251-4.59c-4.026,0.46-7.707,3.226-9.269,6.965
			c3.06-2.952,8.226-2.787,11.817-0.511s5.831,6.19,7.289,10.184c1.811,4.961,2.298,11.306-1.67,14.791
			c-2.794,2.454-6.924,2.637-10.595,2.042C288.099,116.923,284.103,115.534,279.315,110.345z"/>
		<path clip-path="url(#SVGID_4_)" fill="#895A30" d="M177.831,84.122c5.044-4.152,12.328-5.395,18.463-3.15
			c6.136,2.245,10.897,7.895,12.069,14.323c0.82-4.815,0.117-9.44-1.963-13.859c2.363,2.72,3.93,6.124,4.461,9.688
			c0.576-5.274,0.723-10.722-0.917-15.767s-5.343-9.663-10.414-11.224s-11.373,0.722-13.326,5.654
			c2.039-2.096,5.492-2.646,8.082-1.288C186.697,70.287,179.627,76.534,177.831,84.122z"/>
		<path clip-path="url(#SVGID_4_)" fill="#774C3D" d="M311.974,237.934c0.875-10.12,1.751-20.241,2.626-30.361
			C317.097,217.334,316.034,228.714,311.974,237.934z"/>
		<path clip-path="url(#SVGID_4_)" fill="#774C3D" d="M326.643,331.485c16.877-18.493,27.334-42.738,29.201-67.705
			s-4.868-50.497-18.807-71.295c-0.992,14.384-1.985,28.768-2.977,43.152c-0.334,4.838-1.913,11.034-6.743,11.458
			c-4.426,0.389-7.209-4.6-8.491-8.853c-4.262-14.139-5.179-29.274-2.656-43.824c2.136,23.243-4.764,48.832-14.092,70.228
			c-3.812,8.743-8.526,17.106-11.673,26.11s-4.656,18.953-1.847,28.068c2.809,9.115,10.706,17.071,20.216,17.796
			c10.709,0.816,20.266-7.427,25.273-16.929"/>
		<path clip-path="url(#SVGID_4_)" fill="#774B3D" d="M169.423,262.07c3.782,3.349,8.338,5.686,12.429,8.652
			c12.689,9.201,20.397,24.484,21.626,40.109s-3.698,31.427-12.438,44.438c-6.776,10.086-16.45,18.973-28.352,21.418
			c-11.168,2.294-22.974-1.46-32.225-8.124c-20.305-14.627-28.5-41.173-29.735-66.167c-0.59-11.933,0.156-24.164,4.537-35.28
			c4.381-11.116,12.803-21.051,24.025-25.152c8.005-2.925,17.376-2.384,24.878,1.719
			C162.544,248.265,162.759,256.168,169.423,262.07z"/>
		<path clip-path="url(#SVGID_4_)" fill="#543226" d="M182.733,325.106c5.151-12.286,3.74-27.107-3.638-38.2
			c-4.604-6.923-12.303-12.658-20.573-11.803c-8.436,0.872-14.935,8.469-17.233,16.633c-2.298,8.164-1.271,16.848-0.226,25.264
			c-14.256-11.899-17.852-31.999-20.522-50.375c-7.469,19.815,0.252,41.809,8.212,61.432c5.109,12.594,11.843,26.565,24.843,30.532
			c8.874,2.708,18.781-0.241,26.125-5.911c7.344-5.669,12.456-13.748,16.527-22.084h-1.51c-1.936,14.136-4.734,28.663-12.946,40.331
			c-8.212,11.668-22.019,20.222-36.224,18.885c-16.301-1.535-28.795-15.041-37.624-28.83c-21.748-33.965-31.298-75.116-29.364-115.4
			s15.026-79.659,35.315-114.515c-5.592,24.108-11.184,48.217-16.776,72.325c-0.979,4.219-1.089,10.072,3.056,11.326
			c4.534,1.371,7.563-4.516,8.785-9.092c7.719-28.916,25.617-56.994,47.038-77.894c-7.24,43.83-0.037,89.861,21.317,128.817
			c8.148-21.996,2.253-46.453-4.169-69.014c-6.422-22.561-13.349-46.466-7.065-69.065c7.856,44.251,16.63,88.262,32.546,130.293
			c5.331,14.077,11.6,28.044,13.417,42.987c1.817,14.943-1.634,31.486-12.958,41.403c2.975-17.791,1.888-36.249-3.156-53.567
			C198.108,296.437,192.175,310.973,182.733,325.106z"/>
		<path clip-path="url(#SVGID_4_)" fill="#634335" d="M350.917,332.456c14.861-43.039,10.294-92.381-12.212-131.962
			c5.573,27.818,1.675,57.445-10.906,82.874c-1.967,3.976-4.797,8.313-9.208,8.784c-5.611,0.599-9.76-5.82-9.53-11.459
			s3.238-10.725,5.126-16.043c3.44-9.69,3.099-20.667-0.934-30.125c0.265,14.347-5.86,28.519-11.653,41.646
			c-5.793,13.128-12.534,25.949-16.219,39.816c-3.685,13.868-4.034,29.274,2.667,41.962c6.701,12.688,21.72,21.555,35.621,17.998
			c10.311-2.639,18.182-11.39,22.456-21.137C350.399,345.063,347.443,342.517,350.917,332.456z"/>
		<path clip-path="url(#SVGID_4_)" fill="#634335" d="M303.484,372.599c12.028,0.329,23.362-9.98,24.171-21.985
			c-7.321,5.813-18.846,3.708-25.463-2.895c-6.617-6.603-9-16.467-8.862-25.814c0.233-15.73,6.661-30.597,12.173-45.331
			c5.512-14.735,10.255-30.62,7-46.011c-2.857,19.112-13.934,35.808-22.62,53.07c-8.686,17.262-15.166,37.607-8.267,55.658
			c-8.105-14.39-8.857-32.682-1.958-47.687c-8.668,11.989-16.567,25.011-19.348,39.542s0.374,30.906,11.151,41.041
			C282.238,382.322,293.378,383.404,303.484,372.599z"/>
		<path clip-path="url(#SVGID_4_)" fill="#191007" d="M288.316,233.872c3.52,0.001-2.85,18.715-0.689,15.936s3.374-6.167,4.385-9.54
			c8.249-27.513,5.216-57.64,14.899-84.681C294.779,188.283,289.639,195.936,288.316,233.872z"/>
		<path clip-path="url(#SVGID_4_)" fill="#191007" d="M198.873,253.73c1.688-17.703-5.111-34.998-11.916-51.428
			s-13.877-33.545-12.766-51.293c-4.215,13.66-1.556,28.606,2.872,42.199s10.046,27.118,10.522,41.405
			c0.269,8.072-1.126,16.143-0.688,24.208c0.438,8.065,3.127,16.596,9.657,21.349c1.301,0.947,3.168,1.701,4.427,0.698
			c1.004-0.8,1.045-2.283,1-3.565c-0.366-10.377-0.731-20.755-1.097-31.132"/>
		<path clip-path="url(#SVGID_4_)" fill="#3F3A31" d="M268.301,100.141c-2.11-4.134-1.536-9.068-0.91-13.667
			c-4.752,7.037-3.111,17.624,3.548,22.893c-2.841,5.168-2.646,11.574-0.813,17.18c1.833,5.605,5.147,10.588,8.423,15.492
			c-2.043-4.655-1.558-10.333,1.245-14.574c-2.006,3.712,0.088,8.783,3.865,10.664c3.777,1.881,8.56,0.898,11.867-1.722
			c3.307-2.62,5.289-6.618,6.295-10.716c1.323,5.356-0.368,11.353-4.293,15.23c6.763-5.21,11.385-13.118,12.607-21.566
			s-0.971-17.342-5.981-24.254c2.875,4.866,3.604,10.95,1.96,16.358c-0.237-4.494-3.231-8.73-7.388-10.454
			c-4.043-1.677-9.127-0.93-12.376,2.025c8.524-2.699,3.187-13.341-2.685-7.44c-2.77,2.784-1.112,7.624-5.858,9.2
			C274.195,105.987,269.912,103.298,268.301,100.141z"/>
		<path clip-path="url(#SVGID_4_)" fill="#3F3A31" d="M180.009,92.316c3.68-5.676,10.965-8.762,17.602-7.456
			c6.637,1.306,12.21,6.922,13.466,13.569c-2.721-3.185-7.002-4.97-11.18-4.661c9.941,2.811,16.808,13.802,14.976,23.969
			c2.936-3.965,4.357-9.024,3.915-13.938c3.72,6.707,3.991,15.214,0.705,22.144c3.127-2.25,5.051-6.08,4.99-9.932
			c2.674,5.267-1.078,11.481-5.155,15.754c-4.078,4.273-9.001,8.795-9.028,14.701c-0.661-3.459-1.265-6.333-1.277-9.854
			s-0.555-7.252-2.796-9.968s-6.629-3.888-9.373-1.68c3.268,0.913,5.947,3.683,6.751,6.98c-2.858-2.433-6.962-3.315-10.567-2.271
			c5.742,8.452,5.201,20.66-1.268,28.57c2.124-5.707-0.062-12.158-3.318-17.304c-3.256-5.146-7.573-9.613-10.345-15.035
			C173.019,115.952,173.929,101.693,180.009,92.316z"/>
		<path clip-path="url(#SVGID_4_)" fill="#44403B" d="M288.382,263.325c1.111-2.276-8.988-19.663-1.258-20.498
			C295.202,241.955,289.751,260.521,288.382,263.325z"/>
		<path clip-path="url(#SVGID_4_)" fill="#44403B" d="M221.137,306.752c-4.736-5.886-9.471-11.773-14.207-17.659
			c-5.711-7.099-11.572-14.49-13.842-23.313c-2.943-11.442,0.319-23.723,3.961-34.963c3.602-11.116,6.378-23.727,5.924-35.403
			c4.959-0.934,8.414-5.544,10.237-10.249c1.823-4.705,2.533-9.817,4.699-14.375c3.332-7.009,10.182-12.234,17.823-13.592
			c-4.562-0.877-9.317-0.736-13.819,0.41c7.665-7.055,20.421-7.72,28.778-1.5c4.551-4.089,13.127-4.446,18.657-1.827
			c-2.775,0.987-5.32,2.617-7.375,4.727c9.233,2.289,19.305,9.533,19.43,19.044c0.299,22.677,1.611,39.315,8.198,69.833
			c2.605,12.071-0.209,24.802-3.707,36.644c-2.065,6.991-5.04,13.96-10.3,19.007c-6.454,6.194-15.702,8.785-24.647,8.895
			C242.002,312.541,229.829,308.866,221.137,306.752z"/>
		<path clip-path="url(#SVGID_4_)" fill="#2B2721" d="M212.73,234.58c-2.995,7.218,1.635,15.181,6.268,21.474
			s9.754,13.7,7.73,21.248c1.251-7.136-4.842-13.227-10.31-17.98c-5.468-4.753-11.394-11.137-9.709-18.183
			c-2.73,8.532,0.25,17.862,4.481,25.758c4.231,7.896,9.755,15.179,12.663,23.652c-7.603-11.562-19.09-20.521-32.157-25.078
			c1.718,5.682,5.498,10.716,10.475,13.95c0.376,7.661,1.09,15.418,3.78,22.601c2.689,7.183,7.586,13.817,14.497,17.144
			c6.911,3.327,15.942,2.715,21.45-2.623c6.68,6.635,20.981,6.571,27.605-0.12c-3.921-1.806-7.841-3.612-11.762-5.419
			c5.366,1.653,11.472,0.694,16.074-2.524c4.601-3.218,7.597-8.625,7.886-14.232c-2.666,5.335-10.019,7.694-15.291,4.905
			c7.107-4.915,11.564-12.957,13.818-21.299s2.526-17.071,2.785-25.708c-1.243,11.879-10.449,22.513-22.027,25.446
			c8.277-1.975,14.703-9.475,16.257-17.842c1.554-8.367-1.43-17.247-7.052-23.636c-5.621-6.389-13.652-10.391-22.006-12.013
			C236.162,221.769,217.424,223.266,212.73,234.58z"/>
		<path clip-path="url(#SVGID_4_)" fill="#2B2721" d="M274.469,232.392c2.843-8.377,0.848-18.213-5.035-24.82
			c5.272,0.175,10.153,4.312,11.189,9.484c0.518-4.497-1.678-8.851-4.209-12.604c-2.531-3.752-5.512-7.321-6.915-11.625
			c-1.473-4.519-1.062-9.406-1.551-14.135c-0.488-4.728-2.272-9.835-6.479-12.047l-0.315,0.315c3.454,0,6.841,1.547,9.035,4.216
			c-0.609-3.774-3.148-7.184-6.588-8.851c-3.44-1.667-7.69-1.545-11.029,0.316c1.239-2.985,4.19-5.185,7.404-5.521
			c-3.706-1.366-8.247,0.057-10.511,3.293c-0.686-3.25-4.074-5.686-7.374-5.302c1.865,0.827,3.328,2.513,3.885,4.476
			c-6.292-0.582-12.261,2.654-16.189,7.604c3.273-2.469,7.59-3.504,11.627-2.788c-6.674,2.181-12.138,7.757-14.183,14.474
			c-1.767,5.805-1.178,12.43-4.486,17.518c-1.842,2.833-4.691,4.834-7.013,7.289c-2.323,2.455-4.208,5.825-3.376,9.101
			c2.617-4.038,6.484-7.184,11.021-8.786c-4.33,3.576-7.827,8.288-9.396,13.68s-1.077,11.472,1.871,16.252
			c3.714,6.021,10.712,9.272,17.641,10.696C249.577,247.932,269.191,247.942,274.469,232.392z"/>
		<path clip-path="url(#SVGID_4_)" fill="#191711" d="M191.312,97.731c5.62-2.375,12.441-0.933,17.176,2.914
			c4.735,3.847,7.482,9.795,8.223,15.851c0.741,6.056-0.383,12.22-2.357,17.993c-1.509-6.288-6.33-10.925-12.301-13.407
			c-5.971-2.481-13.114-1.931-18.635,1.436c0.869-5.549,4.004-10.71,8.527-14.04c-3.604-0.049-7.188,1.71-9.355,4.59
			c1.372-6.882,7.942-12.356,14.959-12.462C195.707,98.41,194.094,97.046,191.312,97.731z"/>
		<path clip-path="url(#SVGID_4_)" fill="#191711" d="M178.806,120.618c0.255-6.627,3.357-13.097,8.364-17.445
			c-4.389,0.199-8.601,2.754-10.806,6.555c1.618-6.505,4.944-12.87,10.501-16.618c5.557-3.748,13.605-4.221,18.735,0.094
			c-2.034-4.972-7.474-8.125-12.846-8.09c-5.371,0.035-10.494,2.945-13.872,7.121c-3.378,4.176-5.13,9.498-5.67,14.843
			c-1.042,10.313,2.509,22.344,10.151,29.597C181.745,131.048,178.564,126.901,178.806,120.618z"/>
		<path clip-path="url(#SVGID_4_)" fill="#191711" d="M279.554,142.648c-5.283-8.765-4.823-20.65,1.121-28.98
			c-3.945-0.544-6.813-5.066-5.626-8.867c-0.303,2.175,2.56,3.737,4.601,2.926c2.041-0.812,3.148-3.048,3.589-5.199
			c0.441-2.152,0.407-4.4,1.076-6.492c0.669-2.092,2.326-4.11,4.519-4.235c-3.553,0.792-6.614,3.514-7.815,6.95
			c-0.591-5.872,2.805-11.94,8.119-14.507c-2.76,0.506-5.52,1.012-8.28,1.518c5.196-5.375,14.867-5.441,20.137-0.137
			c-3.059-2.162-7.973-0.737-9.401,2.726c7.236-0.245,14.26,5.182,15.849,12.245c-4.869-4.285-13.615-2.671-16.633,3.071
			c4.977-1.03,10.454,0.918,13.663,4.86c2.254,2.769,4.397,8.331,2.421,11.587c-3.8-1.433-6.962-0.751-9.628,2.483
			c-1.335,1.619-4.007,1.445-6.093,1.219c-2.086-0.226-4.143-1.365-5.111-3.226s-0.593-4.432,1.097-5.677
			C279.789,122.5,276.255,132.6,279.554,142.648z"/>
		<g clip-path="url(#SVGID_4_)">
			<path d="M312.231,141.44c-2.816,7.599-5.747,15.149-8.407,22.784c-2.931,7.528-5.663,15.133-7.937,22.87
				c-2.275,7.734-4.118,15.595-5.294,23.557c-0.342,1.984-0.496,3.991-0.754,5.986c-0.203,1.999-0.324,4.009-0.478,6.01
				c-0.195,3.96,0.203,7.951,0.776,11.932c0.579,3.984,1.299,7.979,1.757,12.044c0.215,2.035,0.363,4.084,0.389,6.145
				c-0.014,2.066-0.109,4.124-0.364,6.162c-0.946,8.177-3.467,15.983-5.895,23.69c-1.234,3.865-2.411,7.693-3.477,11.61
				c-1.134,3.9-2.492,7.922-5.124,11.288c-1.352,1.626-3.013,3.043-4.91,4.005c-1.896,0.951-3.963,1.487-6.038,1.636
				c-4.146,0.328-8.387-1.04-11.386-3.781c1.602,1.244,3.464,2.102,5.398,2.575c1.931,0.489,3.948,0.593,5.897,0.311
				c1.948-0.273,3.833-0.909,5.497-1.89c1.657-0.989,3.052-2.354,4.183-3.915c2.367-3.067,3.735-6.861,4.826-10.702
				c1.06-3.896,2.262-7.808,3.491-11.655c2.431-7.708,4.91-15.422,5.826-23.367c1.108-7.939-0.596-15.877-1.775-23.91
				c-0.579-4.026-0.995-8.129-0.791-12.267c0.156-2.034,0.279-4.068,0.485-6.094c0.26-2.02,0.418-4.054,0.763-6.061
				c1.19-8.059,3.053-15.999,5.346-23.795c2.287-7.802,5.054-15.443,7.971-23.011C305.408,156.138,308.749,148.758,312.231,141.44z"
				/>
		</g>
		<g clip-path="url(#SVGID_4_)">
			<path d="M201.611,280.594c-2.257-2.742-4.478-5.526-6.389-8.562c-1.907-3.024-3.521-6.331-4.306-9.942
				c-0.711-3.643-0.291-7.394,0.484-10.899c0.781-3.529,1.923-6.901,2.784-10.3c0.433-1.698,0.786-3.402,0.999-5.114
				c0.193-1.712,0.265-3.438,0.171-5.162c-0.171-3.451-0.926-6.87-2.01-10.188c-2.183-6.653-5.577-12.893-8.635-19.32
				c-0.766-1.609-1.511-3.232-2.219-4.876c-0.682-1.654-1.312-3.333-1.97-4.998c-0.561-1.698-1.145-3.391-1.68-5.097
				c-0.476-1.722-1.002-3.432-1.436-5.163c-1.771-6.921-3.003-13.945-4.144-20.955c-1.14-7.012-2.186-14.023-3.573-20.955
				c-1.102-6.987-2.618-13.908-4.801-20.673c2.84,6.521,4.811,13.41,6.491,20.334c1.398,6.988,2.447,14.02,3.584,21.017
				c1.137,6.996,2.363,13.969,4.112,20.803c0.429,1.71,0.947,3.394,1.416,5.092c0.527,1.679,1.1,3.342,1.652,5.013
				c0.647,1.634,1.263,3.28,1.933,4.905c0.696,1.615,1.431,3.217,2.19,4.812c3.03,6.378,6.462,12.667,8.717,19.526
				c1.118,3.421,1.912,6.993,2.093,10.635c0.099,1.819,0.024,3.65-0.182,5.461c-0.225,1.81-0.595,3.586-1.039,5.326
				c-0.883,3.48-2.021,6.845-2.772,10.249c-0.375,1.701-0.655,3.411-0.761,5.123c-0.138,1.715,0.043,3.412,0.304,5.095
				c0.482,3.386,1.749,6.686,3.392,9.791C197.671,274.678,199.638,277.641,201.611,280.594z"/>
		</g>
		<g clip-path="url(#SVGID_4_)">
			<path d="M330.533,157.471c-5.481,6.239-9.013,13.858-11.045,21.767c-2.339,7.851-3.379,16.04-3.977,24.26
				c-0.63,8.224-0.918,16.517-1.982,24.779c-0.53,4.128-1.252,8.246-2.292,12.297c-1.058,4.047-2.425,8-3.995,11.859
				c-6.275,15.464-15.708,29.287-21.678,44.603c-2.908,7.651-5.051,15.671-5.443,23.828c-0.338,4.061-0.254,8.171,0.402,12.215
				c0.66,4.039,1.883,8.009,3.713,11.727c-4.31-7.122-5.995-15.665-5.836-24.03c0.406-8.401,2.599-16.578,5.556-24.36
				c6.083-15.573,15.515-29.384,21.689-44.632c1.547-3.802,2.888-7.683,3.923-11.642c1.017-3.964,1.728-8.009,2.252-12.085
				c1.051-8.156,1.341-16.422,1.973-24.691c0.595-8.264,1.664-16.591,4.03-24.625c1.302-3.977,2.986-7.836,5.082-11.448
				C324.991,163.68,327.539,160.334,330.533,157.471z"/>
		</g>
		<g clip-path="url(#SVGID_4_)">
			<path d="M155.142,131.031c-0.745,9.564-1.019,19.143-0.634,28.691c0.094,9.548,0.775,19.094,2.088,28.554
				c1.315,9.459,3.218,18.836,5.701,28.057c1.223,4.616,2.65,9.175,4.158,13.705c1.527,4.524,3.221,8.997,4.944,13.464
				c3.453,8.93,7.076,17.835,10.003,27.014c2.908,9.172,5.135,18.65,5.685,28.334c0.301,4.833,0.119,9.705-0.537,14.516
				c-0.374,2.401-0.81,4.799-1.474,7.14c-0.637,2.345-1.371,4.673-2.336,6.909c-1.983,4.446-4.523,8.642-7.67,12.328
				c-3.089,3.731-6.876,6.847-11.02,9.252c7.996-5.356,13.81-13.402,17.096-22.236c1.796-4.363,3.017-8.963,3.697-13.635
				c0.639-4.686,0.819-9.441,0.523-14.175c-0.537-9.484-2.726-18.829-5.606-27.91c-2.9-9.094-6.508-17.967-9.968-26.916
				c-1.727-4.477-3.429-8.972-4.968-13.531c-1.519-4.565-2.958-9.159-4.19-13.811c-2.502-9.292-4.419-18.74-5.744-28.271
				c-1.329-9.531-1.997-19.15-2.118-28.771C152.955,150.118,153.678,140.514,155.142,131.031z"/>
		</g>
		<path clip-path="url(#SVGID_4_)" fill="none" stroke="#000000" stroke-width="1.7233" stroke-miterlimit="10" d="M247.927,271.038
			c-0.947,5.884-1.895,11.768-2.842,17.653"/>
		<g clip-path="url(#SVGID_4_)">
			<path d="M309.232,119.224c0.767,2.122,0.788,4.529,0.36,6.814c-0.68,2.219-1.718,4.29-2.946,6.199
				c-2.451,3.819-5.476,7.086-7.673,10.812c-2.216,3.722-3.793,7.825-4.674,12.069c-0.441,2.122-0.708,4.281-0.795,6.446
				c-0.349,2.156-0.512,4.356-0.569,6.597c-0.629-2.153-0.983-4.395-1.153-6.665c0.091-2.261,0.37-4.513,0.83-6.728
				c0.92-4.429,2.564-8.709,4.882-12.602c2.322-3.919,5.371-7.209,7.701-10.857c1.162-1.816,2.14-3.739,2.734-5.768
				C308.773,123.593,309.284,121.471,309.232,119.224z"/>
		</g>
		<g clip-path="url(#SVGID_4_)">
			<path d="M182.254,89.587c-1.837,2.506-3.319,5.194-4.394,8.01c-1.315,2.699-2.225,5.595-2.749,8.555
				c-1.035,5.913-0.521,12.15,1.783,17.697c2.255,5.583,6.478,10.16,10.011,15.297c1.78,2.572,3.36,5.354,4.39,8.381
				c0.761,3.097,0.958,6.415-0.007,9.39c0.267-3.102-0.392-6.114-1.624-8.834c-0.961-2.824-2.452-5.466-4.179-7.962
				c-3.423-5.004-7.761-9.666-10.184-15.617c-2.438-5.877-2.974-12.434-1.887-18.651c0.546-3.114,1.521-6.152,2.883-9.011
				C177.896,94.099,179.889,91.606,182.254,89.587z"/>
		</g>
		<g clip-path="url(#SVGID_4_)">
			<path d="M181.928,132.934c1.771,2.636,2.942,5.7,3.665,8.845c0.467,3.191,0.547,6.398,0.469,9.571
				c-0.156,6.346-0.896,12.608-0.625,18.812c0.247,6.193,1.782,12.278,3.933,18.124c1.075,2.928,2.301,5.806,3.603,8.656
				c1.038,2.971,2.219,5.898,3.29,8.878c-1.699-2.673-3.28-5.406-4.858-8.162c-1.314-2.877-2.557-5.795-3.653-8.778
				c-2.191-5.952-3.781-12.228-4.037-18.641c-0.276-6.395,0.474-12.692,0.623-18.93c0.072-3.117,0.009-6.23-0.463-9.27
				C183.67,138.962,183.058,135.899,181.928,132.934z"/>
		</g>
		<g clip-path="url(#SVGID_4_)">
			<path d="M195.989,234.921c1.258-4.011,2.176-8.08,2.715-12.201c0.832-4.062,1.333-8.196,1.699-12.346
				c0.727-8.306,0.86-16.693,1.642-25.081c0.798-8.389,2.467-16.786,5.797-24.626c1.67-3.906,3.779-7.657,6.444-11.011
				c2.88-3.169,6.246-5.902,10.031-7.751c-3.419,2.447-6.362,5.433-8.682,8.825c-2.551,3.21-4.587,6.825-6.207,10.615
				c-3.233,7.607-4.881,15.847-5.665,24.109c-0.775,8.299-0.908,16.683-1.641,25.071c-0.364,4.193-0.891,8.386-1.714,12.539
				C199.294,227.152,197.919,231.181,195.989,234.921z"/>
		</g>
		<g clip-path="url(#SVGID_4_)">
			<path d="M267.085,144.299c2.96,2.308,5.435,5.252,7.503,8.453c1.815,3.349,3.182,6.912,4.203,10.55
				c2.04,7.292,2.795,14.825,3.136,22.298c0.333,7.466,0.404,14.916,1.241,22.27c0.419,3.673,1.032,7.318,1.977,10.87
				c0.664,3.627,1.739,7.181,3.17,10.641c-2.053-3.138-3.587-6.621-4.836-10.198c-0.972-3.657-1.598-7.385-2.024-11.118
				c-0.85-7.474-0.918-14.962-1.251-22.388c-0.337-7.404-1.089-14.817-3.074-21.908c-0.998-3.535-2.305-6.985-4.068-10.183
				C271.565,150.243,269.54,147.127,267.085,144.299z"/>
		</g>
		<path clip-path="url(#SVGID_4_)" fill="#191711" d="M283.819,125.094c1.592,2.562,4.879,3.786,7.865,3.356
			c2.986-0.43,5.631-2.311,7.462-4.709c1.831-2.397,2.923-5.279,3.696-8.195c0.027,3.959,0.454,8.956-0.72,12.737
			c-1.174,3.781-3.383,7.348-6.676,9.545c-3.294,2.197-7.749,2.829-11.285,1.048c2.124,0.402,4.401-0.073,6.187-1.292
			c-2.477-0.214-4.841-1.515-6.346-3.493C282.496,132.113,283.365,127.538,283.819,125.094z"/>
		<path clip-path="url(#SVGID_4_)" fill="#35322E" d="M261.916,214.462c-3.144,0.033-6.271,1.062-8.819,2.904
			c-3.009-4.719-10.222-6.052-14.72-2.721c1.22-2.03,3.078-4.767,5.379-5.328c-2.257-0.778-4.906-0.291-6.738,1.24
			c1.75-2.858,3.537-5.762,6.043-7.987c2.506-2.225,5.883-3.713,9.192-3.179c3.182,0.513,5.846,2.821,7.555,5.554
			C261.517,207.678,261.042,211.36,261.916,214.462z"/>
		<path clip-path="url(#SVGID_4_)" fill="#44403B" d="M288.723,237.81c0.277,1.703,0.553,3.407,0.83,5.11
			c0.139,0.854,0.198,1.909-0.517,2.396c-0.513,0.35-1.201,0.231-1.805,0.083c-2.182-0.536-0.919-1.572-0.17-2.922
			C287.677,241.366,288.937,239.128,288.723,237.81z"/>
		<path clip-path="url(#SVGID_4_)" fill="#D3905E" d="M213.433,92.145c1.942-9.709,0.586-20.048-3.795-28.928
			c1.621,1.016,3.243,2.032,4.864,3.049c-1.398-3.295-2.796-6.59-4.194-9.884c6.716,0.772,12.836,5.46,15.329,11.743
			s1.254,13.892-3.105,19.059c1.377-2.595,1.077-5.988-0.734-8.3C221.391,85.142,218.651,88.665,213.433,92.145z"/>
		<path clip-path="url(#SVGID_4_)" fill="#D3905E" d="M242.937,113.775c2.829-3.283,2.287-8.204,1.425-12.451
			s-1.801-8.989,0.514-12.653c-2.848,1.108-4.153,3.917-4.321,6.968c-0.168,3.051,0.756,6.04,1.469,9.012
			S243.922,110.882,242.937,113.775z"/>
		<path clip-path="url(#SVGID_4_)" fill="#D3905E" d="M267.291,159.429c3.844,1.822,7.229,4.603,9.763,8.021
			c-0.458-5.713-3.377-11.879-6.831-16.453C271.094,154.233,269.882,157.304,267.291,159.429z"/>
		<path clip-path="url(#SVGID_4_)" fill="#422B23" d="M357.898,326.707c-2.464,4.159-7.951,5.955-12.654,4.837
			s-8.553-4.721-10.826-8.987c-2.274-4.266-3.133-9.15-3.441-13.974c-0.713-11.165,1.411-22.5,6.116-32.65
			c-12.152,15.305-18.781,33.148-18.138,52.68c0.194,5.887,1.26,12.257,5.561,16.282c5.919,5.54,15.902,4.246,22.354-0.664
			C353.322,339.322,354.352,333.998,357.898,326.707z"/>
		<use xlink:href="#SVGID_3_"  overflow="visible" fill="none" stroke="#000000" stroke-width="1.7233" stroke-miterlimit="10"/>
	</g>
	<g>
		<defs>
			<path id="SVGID_5_" d="M273.775,257.143c-4.81,8.233-14.034,13.702-23.566,13.972c-9.531,0.27-19.05-4.668-24.319-12.615
				c-4.911-7.408-15.994-11.224-16.646-20.088c-0.69-9.378,7.135-17.868,16.193-20.395c9.058-2.526,18.821-0.214,27.4,3.637
				c6.667-1.921,13.655-3.567,20.492-2.385c6.837,1.182,13.508,5.868,14.992,12.645c1.064,4.859-0.675,9.994-3.557,14.049
				C281.882,250.018,276.284,252.848,273.775,257.143z"/>
		</defs>
		<clipPath id="SVGID_6_">
			<use xlink:href="#SVGID_5_"  overflow="visible"/>
		</clipPath>
		<path clip-path="url(#SVGID_6_)" fill="#161615" d="M295.118,216.451c-10.752-7.37-22.752-13.193-35.577-15.53
			c-12.825-2.336-26.537-1-38.025,5.16c-11.489,6.16-20.46,17.43-22.468,30.311c-2.162,13.875,4.062,28.445,14.811,37.48
			s25.505,12.691,39.449,11.033c13.944-1.658,27.032-8.34,37.526-17.67c6.085-5.41,11.446-11.835,14.524-19.373
			c3.078-7.538,3.695-16.287,0.546-23.796c-3.149-7.508-10.397-13.446-18.524-13.939"/>
		<path clip-path="url(#SVGID_6_)" d="M252.456,248.502c-0.777,8.783-2.708,17.463-5.728,25.747c0.794,0.674,2.224,1.06,3.135,0.555
			C252.785,265.956,252.558,257.82,252.456,248.502z"/>
		<path clip-path="url(#SVGID_6_)" d="M262.616,256.322c2.012-2.467,5.026-4.093,8.192-4.421c1.468-0.152,3.037-0.058,4.316-0.795
			c1.279-0.738,1.911-2.788,0.72-3.659c-2.59-1.894-6.791-0.729-9.324,1.241C263.986,250.657,262.736,253.115,262.616,256.322z"/>
		<path clip-path="url(#SVGID_6_)" d="M230.211,250.682c-1.078,0.007-2.165,0.134-3.23-0.038s-2.144-0.708-2.628-1.672
			c-0.697-1.387,0.152-3.176,1.499-3.946c1.348-0.77,3.012-0.734,4.537-0.444c5.016,0.955,12.598,6.516,12.032,12.284
			C238.224,253.993,236.026,250.644,230.211,250.682z"/>
		<ellipse clip-path="url(#SVGID_6_)" fill="#3A3A3A" cx="267.9" cy="230.282" rx="15.063" ry="8.627"/>
		<ellipse clip-path="url(#SVGID_6_)" fill="#3A3A3A" cx="256.68" cy="241.653" rx="4.173" ry="2.39"/>
		<use xlink:href="#SVGID_5_"  overflow="visible" fill="none" stroke="#000000" stroke-width="1.7233" stroke-miterlimit="10"/>
	</g>
	<g>
		<defs>
			<path id="SVGID_7_" d="M286.002,111.172c1.545-3.139,4.392-5.955,7.884-6.174c2.161-0.136,4.306,0.758,5.962,2.154
				c1.656,1.395,2.861,3.26,3.78,5.22c0.475,1.012,0.885,2.085,0.904,3.203c0.019,1.118-0.416,2.296-1.34,2.926
				c-0.715,0.488-1.612,0.593-2.443,0.835c-1.905,0.555-3.329,2.698-4.904,3.906C286.107,130.71,281.845,119.619,286.002,111.172z"
				/>
		</defs>
		<clipPath id="SVGID_8_">
			<use xlink:href="#SVGID_7_"  overflow="visible"/>
		</clipPath>
		<path clip-path="url(#SVGID_8_)" d="M282.511,112.49c-0.754,2.622-1.086,5.409-0.568,8.088s1.95,5.24,4.198,6.785
			c2.459,1.69,5.71,2.017,8.583,1.212c16.147-4.521,14.157-34.506-3.782-26.877C286.561,103.562,283.78,108.078,282.511,112.49z"/>
		<path clip-path="url(#SVGID_8_)" fill="#FFFFFF" d="M300.68,114.161c-0.91,2.745-3.07,5.048-5.751,6.133s-5.834,0.932-8.398-0.407
			c-0.259,1.65,0.921,3.261,2.557,3.598c1.636,0.337,3.32-0.224,4.84-0.917c1.762-0.804,3.454-1.81,4.826-3.177
			S300.394,116.076,300.68,114.161z"/>
		<path clip-path="url(#SVGID_8_)" fill="#2D1A14" d="M299.076,110.297c0.131,2.7-1.983,5.329-4.649,5.779
			c-2.666,0.45-5.526-1.338-6.289-3.932c-1.226,1.459-2.137,3.258-1.811,5.135c2.483,2.694,6.957,3.642,10.066,1.703
			C299.5,117.044,300.403,113.712,299.076,110.297z"/>
		<path clip-path="url(#SVGID_8_)" fill="#5B3A24" d="M298.366,114.567c-1.088,1.529-2.864,2.547-4.733,2.714
			s-3.797-0.52-5.139-1.831c-0.147,0.636-0.482,1.311-0.629,1.946c1.679,1.089,3.781,1.498,5.723,1.018
			C295.531,117.933,297.388,116.312,298.366,114.567z"/>
		<circle clip-path="url(#SVGID_8_)" fill="#FFFFFF" cx="290.876" cy="110.21" r="2.24"/>
		<circle clip-path="url(#SVGID_8_)" fill="#FFFFFF" cx="295.961" cy="113.127" r="0.677"/>
	</g>
	<g>
		<defs>
			<path id="SVGID_9_" d="M207.997,107.729c-2.07-2.821-5.366-5.095-8.842-4.701c-2.152,0.244-4.107,1.5-5.494,3.163
				s-2.247,3.71-2.809,5.801c-0.29,1.08-0.507,2.208-0.33,3.312c0.177,1.104,0.812,2.188,1.831,2.647
				c0.789,0.355,1.691,0.302,2.551,0.395c1.972,0.214,3.75,2.074,5.511,2.988C211.31,126.985,213.567,115.319,207.997,107.729z"/>
		</defs>
		<clipPath id="SVGID_10_">
			<use xlink:href="#SVGID_9_"  overflow="visible"/>
		</clipPath>
		<path clip-path="url(#SVGID_10_)" d="M211.664,108.417c1.201,2.449,2.015,5.136,1.974,7.864c-0.042,2.728-1.003,5.5-2.947,7.414
			c-2.126,2.094-5.269,2.984-8.239,2.695c-16.689-1.628-19.973-31.499-0.977-27.124
			C206.115,100.334,209.643,104.294,211.664,108.417z"/>
		<path clip-path="url(#SVGID_10_)" fill="#FFFFFF" d="M194.068,113.239c1.376,2.544,3.905,4.434,6.734,5.033
			s5.907-0.102,8.197-1.869c0.543,1.58-0.336,3.371-1.888,3.989c-1.552,0.618-3.308,0.36-4.926-0.057
			c-1.875-0.483-3.718-1.178-5.307-2.284C195.289,116.946,194.684,115.075,194.068,113.239z"/>
		<path clip-path="url(#SVGID_10_)" fill="#2D1A14" d="M194.971,109.154c0.343,2.682,2.885,4.9,5.588,4.877
			c2.704-0.023,5.207-2.284,5.505-4.971c1.462,1.222,2.674,2.834,2.681,4.739c-1.974,3.087-6.213,4.802-9.613,3.437
			C195.733,115.871,194.262,112.749,194.971,109.154z"/>
		<path clip-path="url(#SVGID_10_)" fill="#5B3A24" d="M196.417,113.234c1.339,1.315,3.265,2.007,5.135,1.844
			c1.869-0.162,3.648-1.176,4.74-2.702c0.256,0.6,0.704,1.206,0.96,1.806c-1.462,1.366-3.461,2.136-5.457,2.003
			C199.797,116.052,197.685,114.781,196.417,113.234z"/>
		<circle clip-path="url(#SVGID_10_)" fill="#FFFFFF" cx="203.029" cy="107.634" r="2.24"/>
		<circle clip-path="url(#SVGID_10_)" fill="#FFFFFF" cx="198.533" cy="111.395" r="0.677"/>
	</g>
</g>
<g>
</g>
<g>
</g>
<g>
</g>
<g>
</g>
<g>
</g>
<g>
</g>
</svg>
